<svg width="343" height="100" viewBox="0 0 343 100" fill="none" xmlns="http://www.w3.org/2000/svg">
<path d="M106.4 35.6H104.6V24.6H106.4L110.1 29.6L113.8 24.6H115.6V35.6H113.8V27.2L110.6 31.4H109.5L106.3 27.2L106.4 35.6Z" fill="#58595B"/>
<path d="M120.1 35.6H118.5V24.6H120.3V32.7L126.6 24.6H128.2V35.6H126.4V27.5L120.1 35.6Z" fill="#58595B"/>
<path d="M132.8 35.6H131V24.6H132.8V29H138.8V24.6H140.6V35.6H138.8V30.5H132.8V35.6Z" fill="#58595B"/>
<path d="M145 35.6H143.5V24.6H145.3V32.7L151.6 24.6H153.2V35.6H151.4V27.5L145 35.6Z" fill="#58595B"/>
<path d="M161.5 35.8C159.8 35.8 158.3 35.3 157.2 34.2C156 33.1 155.5 31.7 155.5 30.1C155.5 28.4 156.1 27.1 157.2 26C158.4 24.9 159.8 24.4 161.5 24.4C162.7 24.4 163.7 24.7 164.6 25.1V26.8C163.7 26.2 162.7 25.9 161.5 25.9C160.3 25.9 159.3 26.3 158.5 27.1C157.7 27.9 157.3 28.8 157.3 30C157.3 31.2 157.7 32.2 158.5 32.9C159.3 33.7 160.3 34.1 161.6 34.1C162.9 34.1 164 33.8 164.9 33.1V34.8C163.8 35.5 162.7 35.8 161.5 35.8Z" fill="#58595B"/>
<path d="M166.3 26.2V24.6H175.7V26.2H171.9V35.7H170.1V26.2H166.3Z" fill="#58595B"/>
<path d="M186 35.6H177.6V24.6H185.8V26.2H179.4V29H184.6V30.6H179.4V34H186V35.6Z" fill="#58595B"/>
<path d="M189.7 35.6H188V24.6H193C194.2 24.6 195.2 24.9 195.8 25.5C196.5 26.1 196.9 26.9 196.9 27.8C196.9 28.7 196.5 29.5 195.8 30.2C195.1 30.8 194.2 31.1 193 31.1H189.8V35.6H189.7ZM189.7 26.2V29.5H192.7C193.4 29.5 193.9 29.3 194.3 29.1C194.7 28.8 194.9 28.4 194.9 27.9C194.9 27.4 194.7 27 194.3 26.7C193.9 26.4 193.4 26.3 192.7 26.3L189.7 26.2Z" fill="#58595B"/>
<path d="M204.4 35.8C202.7 35.8 201.2 35.3 200.1 34.2C198.9 33.1 198.4 31.7 198.4 30.1C198.4 28.4 199 27.1 200.1 26C201.3 24.9 202.7 24.4 204.4 24.4C205.6 24.4 206.6 24.7 207.5 25.1V26.8C206.6 26.2 205.6 25.9 204.4 25.9C203.2 25.9 202.2 26.3 201.4 27.1C200.6 27.9 200.2 28.8 200.2 30C200.2 31.2 200.6 32.2 201.4 32.9C202.2 33.7 203.2 34.1 204.5 34.1C205.8 34.1 206.9 33.8 207.8 33.1V34.8C206.8 35.5 205.7 35.8 204.4 35.8Z" fill="#58595B"/>
<path d="M209.2 26.2V24.6H218.6V26.2H214.8V35.7H213V26.2H209.2Z" fill="#58595B"/>
<path d="M226.1 35.6H220.5V24.6H225.7C226.8 24.6 227.5 24.9 228.2 25.3C228.8 25.8 229.1 26.5 229.1 27.3C229.1 27.8 228.9 28.3 228.7 28.7C228.4 29.1 228.1 29.4 227.6 29.5C228.3 29.6 228.9 30 229.3 30.5C229.7 31 230 31.7 230 32.5C230 33.4 229.6 34.2 228.9 34.8C228.3 35.3 227.4 35.6 226.1 35.6ZM222.3 26.2V29H225.4C226 29 226.5 28.9 226.8 28.6C227.1 28.3 227.3 28 227.3 27.5C227.3 27 227.1 26.7 226.8 26.4C226.5 26.1 226 26 225.4 26H222.3V26.2ZM222.3 30.5V34H225.8C226.5 34 227.1 33.8 227.4 33.5C227.8 33.2 228 32.8 228 32.2C228 31.7 227.8 31.3 227.4 30.9C227 30.6 226.5 30.5 225.8 30.5H222.3Z" fill="#58595B"/>
<path d="M241.8 34.2C240.7 35.3 239.3 35.8 237.6 35.8C235.9 35.8 234.5 35.3 233.4 34.2C232.3 33.1 231.8 31.7 231.8 30.1C231.8 28.5 232.3 27.1 233.4 26.1C234.5 25 235.9 24.4 237.6 24.4C239.3 24.4 240.7 25 241.8 26.1C242.9 27.2 243.5 28.6 243.5 30.1C243.5 31.6 242.9 33.1 241.8 34.2ZM234.8 33C235.6 33.8 236.5 34.2 237.6 34.2C238.7 34.2 239.7 33.8 240.4 33C241.2 32.2 241.6 31.2 241.6 30.1C241.6 28.9 241.2 27.9 240.4 27.2C239.6 26.4 238.7 26 237.6 26C236.5 26 235.5 26.4 234.8 27.2C234 28 233.6 28.9 233.6 30.1C233.6 31.3 234 32.2 234.8 33Z" fill="#58595B"/>
<path d="M252 35.6H250.2V24.6H252V29H258V24.6H259.8V35.6H258V30.5H252V35.6Z" fill="#58595B"/>
<path d="M263.5 35.6H261.6L266.6 24.5H268.3L273.3 35.6H271.4L270.1 32.9H264.7L263.5 35.6ZM267.5 26.7L265.4 31.3H269.6L267.5 26.7Z" fill="#58595B"/>
<path d="M276.8 35.8C276.1 35.8 275.5 35.7 275.2 35.5V33.9C275.6 34.1 276 34.2 276.5 34.2C277 34.2 277.3 34.1 277.7 33.8C278 33.6 278.3 33.1 278.7 32.3L274.2 24.5H276.3L279.7 30.5L282.5 24.5H284.4L280.2 33.2C279.3 35 278.2 35.8 276.8 35.8Z" fill="#58595B"/>
<path d="M287.9 35.6H286.1V24.6H287.9V29.1L292.6 24.6H294.9L289.6 29.6L295.8 35.6H293.4L288 30.3V35.6H287.9Z" fill="#58595B"/>
<path d="M299 35.6H297.5V24.6H299.3V32.7L305.6 24.6H307.2V35.6H305.4V27.5L299 35.6Z" fill="#58595B"/>
<path d="M106.2 54.7H104.7V43.7H106.5V51.8L112.8 43.7H114.4V54.7H112.6V46.6L106.2 54.7Z" fill="#58595B"/>
<path d="M127.1 54.7H121.5V43.7H126.7C127.8 43.7 128.5 44 129.2 44.4C129.8 44.9 130.1 45.6 130.1 46.4C130.1 46.9 129.9 47.4 129.7 47.8C129.5 48.2 129.1 48.5 128.6 48.6C129.3 48.7 129.9 49.1 130.3 49.6C130.7 50.1 131 50.8 131 51.6C131 52.5 130.6 53.3 129.9 53.9C129.2 54.4 128.3 54.7 127.1 54.7ZM123.3 45.2V48H126.4C127 48 127.5 47.9 127.8 47.6C128.1 47.3 128.3 47 128.3 46.5C128.3 46 128.1 45.7 127.8 45.4C127.5 45.1 127 45 126.4 45H123.3V45.2ZM123.3 49.6V53.1H126.8C127.5 53.1 128.1 52.9 128.4 52.6C128.8 52.3 129 51.9 129 51.3C129 50.8 128.8 50.4 128.4 50C128 49.7 127.5 49.6 126.8 49.6H123.3Z" fill="#58595B"/>
<path d="M137.6 54.7H133.2V43.7H135V47.5H137.6C138.9 47.5 140 47.8 140.8 48.5C141.6 49.2 142 50 142 51.1C142 52.2 141.6 53 140.8 53.7C139.9 54.4 138.9 54.7 137.6 54.7ZM135 49.1V53.1H137.5C138.3 53.1 138.9 52.9 139.4 52.6C139.9 52.3 140.1 51.8 140.1 51.1C140.1 50.4 139.9 49.9 139.4 49.6C138.9 49.3 138.3 49.1 137.5 49.1H135ZM145.2 54.7H143.4V43.7H145.2V54.7Z" fill="#58595B"/>
<path d="M153.5 54.9C151.8 54.9 150.3 54.4 149.2 53.3C148 52.2 147.5 50.8 147.5 49.2C147.5 47.5 148.1 46.2 149.2 45.1C150.4 44 151.8 43.5 153.5 43.5C154.7 43.5 155.7 43.8 156.6 44.2V45.9C155.7 45.3 154.7 45 153.5 45C152.3 45 151.3 45.4 150.5 46.2C149.7 47 149.3 47.9 149.3 49.1C149.3 50.3 149.7 51.3 150.5 52C151.3 52.8 152.3 53.2 153.6 53.2C154.9 53.2 156 52.9 156.9 52.2V53.9C155.9 54.6 154.8 54.9 153.5 54.9Z" fill="#58595B"/>
<path d="M173.1 54.7H159.1V43.7H160.9V53.2H165.2V43.7H167V53.2H171.3V43.7H173.1V54.7Z" fill="#58595B"/>
<path d="M184.2 54.7H175.8V43.7H184V45.3H177.6V48H182.8V49.6H177.6V53.1H184.2V54.7Z" fill="#58595B"/>
<path d="M188 54.7H186.2V43.7H194.3V45.3H188V54.7Z" fill="#58595B"/>
<path d="M205.4 53.3C204.3 54.4 202.9 54.9 201.2 54.9C199.5 54.9 198.1 54.4 197 53.3C195.9 52.2 195.4 50.8 195.4 49.2C195.4 47.6 195.9 46.2 197 45.2C198.1 44.1 199.5 43.5 201.2 43.5C202.9 43.5 204.3 44.1 205.4 45.2C206.5 46.3 207.1 47.7 207.1 49.2C207.1 50.7 206.5 52.2 205.4 53.3ZM198.3 52.1C199.1 52.9 200 53.3 201.1 53.3C202.2 53.3 203.2 52.9 203.9 52.1C204.7 51.3 205.1 50.3 205.1 49.2C205.1 48 204.7 47 203.9 46.3C203.1 45.5 202.2 45.1 201.1 45.1C200 45.1 199 45.5 198.3 46.3C197.5 47.1 197.1 48 197.1 49.2C197.2 50.4 197.5 51.3 198.3 52.1Z" fill="#58595B"/>
<path d="M223.4 53.3C222.3 54.4 220.9 54.9 219.2 54.9C217.5 54.9 216.1 54.4 215 53.3C213.9 52.2 213.4 50.8 213.4 49.2C213.4 47.6 213.9 46.2 215 45.2C216.1 44.1 217.5 43.5 219.2 43.5C220.9 43.5 222.3 44.1 223.4 45.2C224.5 46.3 225.1 47.7 225.1 49.2C225.1 50.7 224.5 52.2 223.4 53.3ZM216.3 52.1C217.1 52.9 218 53.3 219.1 53.3C220.2 53.3 221.2 52.9 221.9 52.1C222.7 51.3 223.1 50.3 223.1 49.2C223.1 48 222.7 47 221.9 46.3C221.1 45.5 220.2 45.1 219.1 45.1C218 45.1 217 45.5 216.3 46.3C215.5 47.1 215.1 48 215.1 49.2C215.2 50.4 215.6 51.3 216.3 52.1Z" fill="#58595B"/>
<path d="M232.2 54.7H227.4V43.7H235.5V45.3H229.2V47.6H232.3C233.6 47.6 234.6 47.9 235.4 48.6C236.1 49.2 236.6 50.1 236.6 51.2C236.6 52.3 236.2 53.1 235.4 53.8C234.6 54.4 233.5 54.7 232.2 54.7ZM229.1 49.2V53.1H232C232.8 53.1 233.4 52.9 233.9 52.6C234.3 52.2 234.6 51.8 234.6 51.2C234.6 50.6 234.4 50.1 233.9 49.7C233.4 49.3 232.8 49.2 232 49.2H229.1Z" fill="#58595B"/>
<path d="M240.3 54.7H238.5V43.7H243.4C244.6 43.7 245.6 44 246.2 44.6C246.9 45.2 247.3 46 247.3 46.9C247.3 47.8 246.9 48.6 246.2 49.3C245.5 49.9 244.6 50.2 243.4 50.2H240.2V54.7H240.3ZM240.3 45.2V48.5H243.3C244 48.5 244.5 48.3 244.9 48.1C245.3 47.9 245.5 47.4 245.5 46.9C245.5 46.4 245.3 46 244.9 45.7C244.5 45.4 244 45.3 243.3 45.3L240.3 45.2Z" fill="#58595B"/>
<path d="M249 54.7H247.1L252.1 43.6H253.8L258.8 54.7H257L255.7 52H250.3L249 54.7ZM253 45.7L250.9 50.3H255.1L253 45.7Z" fill="#58595B"/>
<path d="M264.3 54.9C262.7 54.9 261.4 54.6 260.3 54V52.3C260.8 52.6 261.4 52.9 262.1 53C262.8 53.2 263.4 53.3 264.1 53.3C265 53.3 265.8 53.1 266.4 52.8C267 52.4 267.2 52 267.2 51.4C267.2 50.9 266.9 50.5 266.4 50.1C265.9 49.8 265.2 49.6 264.3 49.6H263V48H264.6C265.3 48 265.9 47.8 266.2 47.6C266.6 47.3 266.8 47 266.8 46.5C266.8 46 266.6 45.7 266.1 45.4C265.7 45.1 265 45 264.3 45C263.1 45 261.9 45.3 260.8 45.8V44.2C261.9 43.6 263.1 43.4 264.4 43.4C265.7 43.4 266.7 43.7 267.4 44.2C268.2 44.7 268.6 45.5 268.6 46.4C268.6 47 268.4 47.5 268 47.9C267.6 48.3 267.2 48.6 266.8 48.7C267.4 48.9 267.9 49.2 268.4 49.7C268.9 50.2 269.1 50.8 269.1 51.5C269.1 52.5 268.7 53.3 267.8 54C266.8 54.6 265.7 54.9 264.3 54.9Z" fill="#58595B"/>
<path d="M280.8 53.3C279.7 54.4 278.3 54.9 276.6 54.9C274.9 54.9 273.5 54.4 272.4 53.3C271.3 52.2 270.8 50.8 270.8 49.2C270.8 47.6 271.3 46.2 272.4 45.2C273.5 44.1 274.9 43.5 276.6 43.5C278.3 43.5 279.7 44.1 280.8 45.2C281.9 46.3 282.5 47.7 282.5 49.2C282.5 50.7 281.9 52.2 280.8 53.3ZM273.7 52.1C274.5 52.9 275.4 53.3 276.5 53.3C277.6 53.3 278.6 52.9 279.3 52.1C280.1 51.3 280.5 50.3 280.5 49.2C280.5 48 280.1 47 279.3 46.3C278.5 45.6 277.6 45.1 276.5 45.1C275.4 45.1 274.4 45.5 273.7 46.3C272.9 47.1 272.5 48 272.5 49.2C272.6 50.4 273 51.3 273.7 52.1Z" fill="#58595B"/>
<path d="M290.4 54.7H284.8V43.7H290C291.1 43.7 291.8 44 292.5 44.4C293.1 44.9 293.4 45.6 293.4 46.4C293.4 46.9 293.2 47.4 293 47.8C292.7 48.2 292.4 48.5 291.9 48.6C292.6 48.7 293.2 49.1 293.6 49.6C294 50.1 294.3 50.8 294.3 51.6C294.3 52.5 293.9 53.3 293.2 53.9C292.5 54.4 291.5 54.7 290.4 54.7ZM286.5 45.2V48H289.6C290.2 48 290.7 47.9 291 47.6C291.3 47.3 291.5 47 291.5 46.5C291.5 46 291.3 45.7 291 45.4C290.7 45.1 290.2 45 289.6 45H286.5V45.2ZM286.5 49.6V53.1H290C290.7 53.1 291.3 52.9 291.6 52.6C292 52.3 292.2 51.9 292.2 51.3C292.2 50.8 292 50.4 291.6 50C291.2 49.7 290.7 49.6 290 49.6H286.5Z" fill="#58595B"/>
<path d="M297.2 54.7H295.3L300.3 43.6H302L307 54.7H305.1L303.8 52H298.4L297.2 54.7ZM301.2 45.7L299.1 50.3H303.3L301.2 45.7Z" fill="#58595B"/>
<path d="M310.7 54.7H308.9V43.7H310.7V48H316.7V43.6H318.5V54.6H316.7V49.5H310.7V54.7Z" fill="#58595B"/>
<path d="M322.8 54.7H321.3V43.7H323.1V51.8L329.4 43.7H331V54.7H329.2V46.6L322.8 54.7Z" fill="#58595B"/>
<path d="M335 54.7001H332.8L336.5 49.9001C335.7 49.7001 335.1 49.4 334.6 48.8C334.1 48.3 333.9 47.6001 333.9 46.9001C333.9 46.0001 334.2 45.2 334.9 44.6C335.6 44 336.5 43.8 337.7 43.8H342.9V54.8H341.1V50H338.4L335 54.7001ZM337.8 48.5H341.2V45.2001H337.8C337.2 45.2001 336.6 45.4 336.3 45.6C335.9 45.9 335.8 46.3 335.8 46.8C335.8 47.3 336 47.7 336.3 48C336.7 48.3 337.2 48.5 337.8 48.5Z" fill="#58595B"/>
<path d="M106.4 73.8001H104.6V62.8H109.6C110.8 62.8 111.8 63.1001 112.4 63.7001C113.1 64.3001 113.5 65.1 113.5 66C113.5 66.9 113.1 67.7001 112.4 68.4001C111.7 69.0001 110.8 69.3001 109.6 69.3001H106.4V73.8001ZM106.4 64.3001V67.6H109.4C110.1 67.6 110.6 67.4 111 67.2C111.4 66.9 111.6 66.5 111.6 66C111.6 65.5 111.4 65.1001 111 64.8001C110.6 64.5001 110.1 64.4001 109.4 64.4001L106.4 64.3001Z" fill="#58595B"/>
<path d="M125.1 72.3C124 73.4 122.6 73.9 120.9 73.9C119.2 73.9 117.8 73.4 116.7 72.3C115.6 71.2 115.1 69.8 115.1 68.2C115.1 66.6 115.6 65.2 116.7 64.2C117.8 63.1 119.2 62.5 120.9 62.5C122.6 62.5 124 63.1 125.1 64.2C126.2 65.3 126.8 66.7 126.8 68.2C126.8 69.8 126.2 71.2 125.1 72.3ZM118.1 71.1C118.9 71.9 119.8 72.3 120.9 72.3C122 72.3 123 71.9 123.7 71.1C124.5 70.3 124.9 69.3 124.9 68.2C124.9 67.1 124.5 66 123.7 65.3C122.9 64.5 122 64.1 120.9 64.1C119.8 64.1 118.8 64.5 118.1 65.3C117.3 66.1 116.9 67 116.9 68.2C116.9 69.4 117.3 70.4 118.1 71.1Z" fill="#58595B"/>
<path d="M134.8 74C133.1 74 131.6 73.5 130.5 72.4C129.3 71.3 128.8 69.9 128.8 68.3C128.8 66.6 129.4 65.3 130.5 64.2C131.7 63.1 133.1 62.6 134.8 62.6C136 62.6 137 62.9 137.9 63.3V65C137 64.4 136 64.1 134.8 64.1C133.6 64.1 132.6 64.5 131.8 65.3C131 66.1 130.6 67 130.6 68.2C130.6 69.4 131 70.4 131.8 71.1C132.6 71.9 133.6 72.3 134.9 72.3C136.2 72.3 137.3 72 138.2 71.3V73C137.2 73.7 136.1 74 134.8 74Z" fill="#58595B"/>
<path d="M145.7 74C144 74 142.5 73.5 141.4 72.4C140.2 71.3 139.7 69.9 139.7 68.3C139.7 66.6 140.3 65.3 141.4 64.2C142.6 63.1 144 62.6 145.7 62.6C146.9 62.6 147.9 62.9 148.8 63.3V65C147.9 64.4 146.9 64.1 145.7 64.1C144.5 64.1 143.5 64.5 142.7 65.3C141.9 66.1 141.5 67 141.5 68.2C141.5 69.4 141.9 70.4 142.7 71.1C143.5 71.9 144.5 72.3 145.8 72.3C147.1 72.3 148.2 72 149.1 71.3V73C148 73.7 146.9 74 145.7 74Z" fill="#58595B"/>
<path d="M152.7 73.8001H151.2V62.8H153V70.9001L159.3 62.8H160.9V73.8001H159.1V65.7L152.7 73.8001Z" fill="#58595B"/>
<path d="M165.2 73.8H163.7V62.8H165.5V70.9L171.8 62.8H173.4V73.8H171.6V65.7L165.2 73.8ZM168.5 62C167.7 62 166.9 61.7 166.4 61.3C165.9 60.8 165.6 60.2 165.6 59.4H167.1C167.1 59.8 167.2 60.1 167.5 60.3C167.8 60.6 168.1 60.7 168.5 60.7C168.9 60.7 169.3 60.6 169.5 60.3C169.8 60 169.9 59.7 169.9 59.4H171.4C171.4 60.2 171.1 60.8 170.6 61.3C170.1 61.8 169.4 62 168.5 62Z" fill="#58595B"/>
<path d="M181.7 74C180 74 178.5 73.5 177.4 72.4C176.2 71.3 175.7 69.9 175.7 68.3C175.7 66.6 176.3 65.3 177.4 64.2C178.6 63.1 180 62.6 181.7 62.6C182.9 62.6 183.9 62.9 184.8 63.3V65C183.9 64.4 182.9 64.1 181.7 64.1C180.5 64.1 179.5 64.5 178.7 65.3C177.9 66.1 177.5 67 177.5 68.2C177.5 69.4 177.9 70.4 178.7 71.1C179.5 71.9 180.5 72.3 181.8 72.3C183.1 72.3 184.2 72 185.1 71.3V73C184.1 73.7 183 74 181.7 74Z" fill="#58595B"/>
<path d="M189.1 73.8001H187.3V62.8H189.1V67.3001L193.8 62.8H196.1L190.8 67.8001L197 73.8001H194.5L189.1 68.5V73.8001Z" fill="#58595B"/>
<path d="M207.1 72.3C206 73.4 204.6 73.9 202.9 73.9C201.2 73.9 199.8 73.4 198.7 72.3C197.6 71.2 197.1 69.8 197.1 68.2C197.1 66.6 197.6 65.2 198.7 64.2C199.8 63.1 201.2 62.5 202.9 62.5C204.6 62.5 206 63.1 207.1 64.2C208.2 65.3 208.8 66.7 208.8 68.2C208.7 69.8 208.2 71.2 207.1 72.3ZM200 71.1C200.8 71.9 201.7 72.3 202.8 72.3C203.9 72.3 204.9 71.9 205.6 71.1C206.4 70.3 206.8 69.3 206.8 68.2C206.8 67.1 206.4 66 205.6 65.3C204.8 64.5 203.9 64.1 202.8 64.1C201.7 64.1 200.7 64.5 200 65.3C199.2 66.1 198.8 67 198.8 68.2C198.9 69.4 199.2 70.4 200 71.1Z" fill="#58595B"/>
<path d="M212.6 73.8H211V62.8H212.8V70.9L219.1 62.8H220.7V73.8H218.9V65.7L212.6 73.8ZM215.8 62C215 62 214.2 61.7 213.7 61.3C213.2 60.8 212.9 60.2 212.9 59.4H214.4C214.4 59.8 214.5 60.1 214.8 60.3C215.1 60.6 215.4 60.7 215.8 60.7C216.2 60.7 216.6 60.6 216.8 60.3C217.1 60 217.2 59.7 217.2 59.4H218.7C218.7 60.2 218.4 60.8 217.9 61.3C217.3 61.8 216.7 62 215.8 62Z" fill="#58595B"/>
<path d="M234.8 74.1H233V72.9001C231.2 72.8001 229.8 72.4 228.8 71.5C227.9 70.6 227.4 69.5 227.4 68.2C227.4 67.6 227.5 67 227.8 66.5C228 65.9 228.4 65.4 228.8 65C229.2 64.5 229.9 64.2001 230.6 63.9001C231.3 63.6001 232.2 63.5001 233.1 63.4001V62.3H234.9V63.4001C235.8 63.4001 236.6 63.6 237.4 63.8C238.1 64.1 238.7 64.4001 239.2 64.9001C239.7 65.4001 240 65.8001 240.2 66.4001C240.4 67.0001 240.6 67.6 240.6 68.1C240.6 68.6 240.5 69.3001 240.2 69.8001C239.9 70.3001 239.6 70.9001 239.2 71.3001C238.7 71.8001 238.1 72.1001 237.4 72.4001C236.7 72.7001 235.8 72.8001 234.9 72.8001L234.8 74.1ZM233 71.4001V64.9001C231.8 64.9001 230.8 65.2001 230.2 65.8001C229.6 66.4001 229.3 67.2 229.3 68.1C229.3 69 229.6 69.8001 230.2 70.4001C230.8 71.0001 231.8 71.3001 233 71.4001ZM234.8 64.9001V71.4001C236.1 71.4001 237 71.1 237.6 70.5C238.2 69.9 238.5 69.1 238.5 68.2C238.5 67.3 238.2 66.5001 237.6 65.9001C237 65.2001 236 64.9001 234.8 64.9001Z" fill="#58595B"/>
<path d="M250.9 73.8001H242.5V62.8H250.7V64.4001H244.3V67.2H249.5V68.8001H244.3V72.3001H250.9V73.8001Z" fill="#58595B"/>
<path d="M254.1 76.1H252.4V72.2H253.5C254.1 71.3 254.6 70.3 254.8 69.1C255.1 67.9 255.2 66.3001 255.2 64.3001V62.8H262.8V72.3001H264.4V76.2H262.7V73.8001H254L254.1 76.1ZM255.4 72.1H261V64.2H256.9C256.9 66 256.8 67.6001 256.5 68.8001C256.4 70.2001 256 71.3 255.4 72.1Z" fill="#58595B"/>
<path d="M274.7 73.8001H266.3V62.8H274.5V64.4001H268.1V67.2H273.3V68.8001H268.1V72.3001H274.7V73.8001Z" fill="#58595B"/>
<path d="M278.5 73.8001H276.7V62.8H281.7C282.9 62.8 283.9 63.1001 284.5 63.7001C285.2 64.3001 285.6 65.1 285.6 66C285.6 66.9 285.2 67.7001 284.5 68.4001C283.8 69.0001 282.9 69.3001 281.7 69.3001H278.5V73.8001ZM278.5 64.3001V67.6H281.5C282.2 67.6 282.7 67.4 283.1 67.2C283.5 66.9 283.7 66.5 283.7 66C283.7 65.5 283.5 65.1001 283.1 64.8001C282.7 64.5001 282.2 64.4001 281.5 64.4001L278.5 64.3001Z" fill="#58595B"/>
<path d="M287.2 73.8H285.3L290.3 62.7H292L297 73.8H295.1L293.8 71.1H288.4L287.2 73.8ZM291.2 64.8L289.1 69.4H293.3L291.2 64.8Z" fill="#58595B"/>
<path d="M309.8 76.1H308.1V73.7H298.9V62.7H300.7V72.2H306.3V62.7H308.1V72.2H309.7V76.1H309.8Z" fill="#58595B"/>
<path d="M313.2 73.8001H311.7V62.8H313.5V70.9001L319.8 62.8H321.4V73.8001H319.6V65.7L313.2 73.8001Z" fill="#58595B"/>
<path d="M325.7 73.8001H324.2V62.8H326V70.9001L332.3 62.8H333.9V73.8001H332.1V65.7L325.7 73.8001Z" fill="#58595B"/>
<path d="M67.5 71.6C67.2 71.6 67 71.8 67 72.1C67 72.4 67.2 72.6 67.5 72.6C67.8 72.6 68 72.4 68 72.1C68 71.9 67.8 71.6 67.5 71.6Z" fill="#13377D"/>
<path d="M69.2 76.5C69.2 76.8 69.4 77 69.7 77C70 77 70.2 76.8 70.2 76.5C70.2 76.2 70 76 69.7 76C69.4 76 69.2 76.2 69.2 76.5Z" fill="#13377D"/>
<path d="M67.5 76C67.2 76 67 76.2 67 76.5C67 76.8 67.2 77 67.5 77C67.8 77 68 76.8 68 76.5C68 76.2 67.8 76 67.5 76Z" fill="#13377D"/>
<path d="M71.4 76.5C71.4 76.8 71.6 77 71.9 77C72.2 77 72.4 76.8 72.4 76.5C72.4 76.2 72.2 76 71.9 76C71.6 76 71.4 76.2 71.4 76.5Z" fill="#13377D"/>
<path d="M66.8 66.7L66.9 68L65.8 67.9V69.3L66.9 69.1L66.8 70.4H68.2L68.1 69.1L69.2 69.3V67.9L68.1 68L68.2 66.7H66.8Z" fill="#13377D"/>
<path d="M68.4 71.2V75.7H72.7C72.4 73.4 70.6 71.6 68.4 71.2Z" fill="#13377D"/>
<path d="M67.5 73.8C67.2 73.8 67 74 67 74.3C67 74.6 67.2 74.8 67.5 74.8C67.8 74.8 68 74.6 68 74.3C68 74 67.8 73.8 67.5 73.8Z" fill="#13377D"/>
<path d="M69.3 79.5C69.2 79.5 68.8 80.6 69.2 81.4C69.4 81.8 69.8 82 70.2 81.9C70.6 81.8 70.7 81.4 70.7 81.2C70.6 80.3 69.9 79.5 69.3 79.5Z" fill="#13377D"/>
<path d="M65.7 79.5C65.1 79.5 64.4 80.3 64.4 81.2C64.4 81.5 64.5 81.8 64.9 81.9C65.3 82 65.7 81.8 65.9 81.4C66.1 80.6 65.8 79.5 65.7 79.5Z" fill="#13377D"/>
<path d="M67.5 78.9C67.1 78.9 65.9 81.2 66.8 82.3C67 82.5 67.2 82.6 67.5 82.6C67.8 82.6 68.1 82.5 68.2 82.3C69 81.2 67.9 78.9 67.5 78.9Z" fill="#13377D"/>
<path d="M62.2 76.5C62.2 76 62.3 75.6 62.3 75.6H66.6V75.2V72V71.1C64.5 71.5 62.8 73.1 62.3 75.2C62.2 75.4 61.8 75.5 61.5 75.4C59.9 75.2 56.7 74.6 56.7 73.9C56.7 72.9 57.4 72.5 58 72.5C58.9 72.5 59.9 73 60.7 71.8C57.8 71.9 60 67.7 57.6 66.9C57.7 68 57.6 69.9 57.2 70.9C57.2 70.9 56.3 70 55.4 69.6C55.5 70.4 55.3 72 55 72.8C55 72.8 54 71.8 52.9 71.5C53.9 72.9 53.9 75 53.6 76.2C53.5 76.6 53.8 77 54.5 77C55.7 76.9 59.7 77.1 61.4 77.8C61.9 78 62.4 78.3 62.6 78.7C62.8 79.2 63.2 80 63.8 80.4C64.1 79.5 65.1 78.5 65.8 78.6C66 78.6 66.2 79 66.3 79.3C66.4 79 66.9 78.1 67.4 78.1C67.9 78.1 68.4 78.8 68.6 79.4C68.7 79 68.9 78.6 69.1 78.6C69.8 78.6 70.7 79.2 71 80.3C71.3 80 72.5 78.4 72.6 77.3H62.2C62.2 77.4 62.2 77 62.2 76.5Z" fill="#13377D"/>
<path d="M64.8 76.5C64.8 76.8 65 77 65.3 77C65.6 77 65.8 76.8 65.8 76.5C65.8 76.2 65.6 76 65.3 76C65 76 64.8 76.2 64.8 76.5Z" fill="#13377D"/>
<path d="M62.7 76.5C62.7 76.8 62.9 77 63.2 77C63.5 77 63.7 76.8 63.7 76.5C63.7 76.2 63.5 76 63.2 76C62.9 76 62.7 76.2 62.7 76.5Z" fill="#13377D"/>
<path d="M21.3 78.7C21.1 78.9 20.7 80 20.9 80.7C21 81 21.1 81.1 21.4 81.1C21.7 81.1 21.8 80.9 21.9 80.6C22 79.9 21.5 78.8 21.3 78.7Z" fill="#13377D"/>
<path d="M25 81.8C24.8 82.1 24.5 82.2 24.4 82.3C24.5 82.4 24.8 82.6 25.1 82.6C25.3 82.6 25.5 82.5 25.6 82.4C25.9 81.8 25.6 81.3 25.5 81.1C25.4 81.3 25.3 81.6 25 81.8Z" fill="#13377D"/>
<path d="M23.6 80.4C24 80 24.1 79.7 24 79.5C23.9 79.2 23 78.3 22 77.2C22 77.4 21.9 77.6 21.9 77.8C22.6 78.8 22.9 79.8 22.7 80.7C22.8 80.8 22.8 80.8 22.9 80.8C23.1 81 23.4 80.7 23.6 80.4Z" fill="#13377D"/>
<path d="M25 80.5C25 80.3 25 80.2 24.9 80.1H24.8C24.7 80.1 24.6 80.3 24.5 80.4C24.4 80.5 24.3 80.7 24.1 80.9C23.9 81.1 23.8 81.2 23.6 81.4C23.4 81.5 23.3 81.7 23.3 81.8C23.3 81.8 23.3 81.8 23.3 81.9C23.4 82 23.4 82 23.5 82C23.6 82 23.9 81.9 24.4 81.4C24.9 80.9 25 80.7 25 80.5Z" fill="#13377D"/>
<path d="M18.4 75.2C18.4 75.2 18.3 75.3 18.2 75.5C18.4 75.5 18.7 75.5 18.9 75.6C18.9 75.4 18.9 75.1 18.9 74.9C18.7 74.9 18.5 75.1 18.4 75.2Z" fill="#13377D"/>
<path d="M21.1 75.5C21.1 75.5 23.2 77.3 23.9 78C24.1 78.2 24.3 78.2 24.5 78.1C24.6 78 24.8 78 25 77.9C27.1 77.2 30.5 77.1 31.7 77.1C32.5 77.1 32.7 76.7 32.6 76.3C32.4 75.1 32.3 73 33.3 71.6C32.2 72 31.2 72.9 31.2 72.9C30.8 72.2 30.7 70.5 30.8 69.7C29.8 70 29 71 29 71C28.6 70 28.5 68.1 28.6 67C26.2 67.8 28.4 72.1 25.5 71.9C26.3 73.1 27.3 72.6 28.2 72.6C28.8 72.6 29.6 73 29.5 74C29.4 74.7 25.5 75.5 23.9 75.5C22.8 75.5 22 75.2 21.5 74.4C21.2 74 21 73.9 20.7 73.9C20.3 74 19.9 74.3 19.9 75.3C19.9 75.9 20.2 77.3 20.9 77.3C21.3 77.4 21.3 76.2 21.1 75.5Z" fill="#13377D"/>
<path d="M17.1 74.9C17.2 74.9 17.3 74.9 17.4 74.9C17.1 75.3 17.1 75.6 17.2 75.7C17.4 75.9 17.5 75.5 18 75C18.5 74.5 18.8 74.3 18.7 74.1C18.6 74 18.3 74 17.9 74.3C17.9 74.2 18 74.1 17.9 74C17.7 73.5 17 72.9 16.5 72.9C16.4 72.9 16.4 72.9 16.3 72.9C16.5 72.6 16.4 72.4 16.3 72.2C16.2 72.1 16.1 72.2 15.9 72.4C15.9 72.3 15.9 72.1 15.8 71.9C15.2 70.9 11.8 67.7 11 67.4C10.5 67.2 10.4 67.5 10.4 67.5C10.4 67.5 10.1 67.7 10.3 68.1C10.6 68.9 13.9 72.2 14.8 72.8C15 72.9 15.2 73 15.3 72.9C15.1 73.1 15 73.1 15.2 73.3C15.3 73.4 15.5 73.5 15.8 73.3C15.8 73.4 15.8 73.4 15.8 73.5C16 73.9 16.6 74.7 17.1 74.9Z" fill="#13377D"/>
<path d="M19.5 77.3C19.5 77 18.9 76.4 18.1 76.4C17 76.4 16.5 77.1 16.5 77.5C16.5 78.2 17.2 78.3 17.4 78.3C18.1 78.3 19.4 77.5 19.5 77.3Z" fill="#13377D"/>
<path d="M18.5 79C18.2 79.4 18.1 79.8 18.2 80.1C18.3 80.5 18.7 80.7 19.1 80.7C19.5 80.7 19.9 80.5 20.1 80.2C20.5 79.5 20.5 78 20.4 77.9C20 77.9 19 78.3 18.5 79Z" fill="#13377D"/>
<path d="M8.70003 63.4C8.40003 63.1 7.70003 63.6 7.30003 63.3C7.50003 62.3 8.20003 63.3 8.80003 62.7C9.10003 62.4 8.90003 62 8.80003 61.9C8.50003 62.2 8.10003 62.1 8.00003 61.9C8.70003 60.1 7.30003 58.2 5.90003 58.4C6.20003 58.8 6.30003 60.1 6.10003 60.4C6.60003 60.8 6.30003 61.7 5.70003 61.4C5.30003 61.2 4.60003 60.2 5.40003 59.6C5.40003 59.3 4.90003 59.3 4.50003 59.9C4.80003 58.8 2.70003 59.1 2.30003 59.4C2.10003 59.9 1.80003 62 2.90003 61.6C2.30003 62.1 2.40003 62.6 2.60003 62.6C3.30003 61.8 4.20003 62.4 4.40003 62.8C4.70003 63.4 3.80003 63.8 3.40003 63.3C3.10003 63.4 1.80003 63.4 1.50003 63.1C1.30003 64.5 3.30003 66 5.00003 65.2C5.20003 65.2 5.30003 65.7 5.00003 66C5.10003 66.2 5.60003 66.3 5.80003 66C6.50003 65.3 5.50003 64.6 6.40003 64.4C6.60003 64.8 6.20003 65.5 6.50003 65.8C7.00003 66.3 7.60003 65.3 8.30003 65.3C8.30003 64.5 9.20003 63.9 8.70003 63.4ZM3.50003 61.1C3.50003 61.1 3.20003 60.9 3.60003 60.4C4.00003 60 4.20003 60.3 4.20003 60.3C4.20003 60.3 4.60003 61.1 4.70003 61.5C4.30003 61.5 3.50003 61.1 3.50003 61.1ZM6.70003 63.6C6.50003 63.6 6.00003 64.1 5.80003 63.8L4.70003 62.7L5.30003 62.1L5.90003 61.5L7.00003 62.6C7.10003 62.9 6.70003 63.4 6.70003 63.6Z" fill="#13377D"/>
<path d="M8.99998 65.4C8.89998 65.4 8.79998 65.4 8.69998 65.5C8.59998 65.6 8.59998 65.8 8.59998 66C8.59998 66.2 8.79998 66.4 8.99998 66.6C9.09998 66.9 9.39998 67 9.59998 67C9.69998 67 9.79997 67 9.89997 66.9C10.1 66.7 9.99997 66.1 9.69998 65.8C9.49998 65.6 9.19998 65.4 8.99998 65.4Z" fill="#13377D"/>
<path d="M5.80001 62.1L5.50001 62.4L5.20001 62.7C5.20001 62.7 5.80001 63.5 6.30001 63.2C6.60001 62.7 5.80001 62.1 5.80001 62.1Z" fill="#13377D"/>
<path d="M64.2 59.1C64.2 59.3 63.4 59.7 62.8 58.6C62.2 58.5 61.6 58.3 61.2 58.1C61.9 59.5 62.5 60.7 63.5 61.3C65 62.2 67.3 62 68 61C66.7 60.3 65.2 58.5 64.4 56.8C64.2 57.2 63.9 57.9 63.7 58.4C63.8 58.6 64 58.9 64.2 59.1Z" fill="#13377D"/>
<path d="M78.1 37.2C79.7 36.5 82 34.9 83.1 33.9C83.2 34.1 83.6 35 82.4 36C81.5 36.7 79.7 37.6 78.4 38.1C77.8 39 76.6 40 75 41.1C78.2 40.6 82 39.3 83.9 37.5C87.4 34 85.6 29.8 85.1 28.8C82.8 31.7 78.4 34.7 74.3 36.3C75.7 36.5 77.1 36.8 78.1 37.2Z" fill="#13377D"/>
<path d="M75.5 30.8C77.6 29.1 79.8 25.7 80.2 24.5C80.7 24.8 80.9 25.8 80.3 26.9C79.2 28.8 77.2 30.5 75.5 31.9C75.4 33.1 74.9 34.6 74.3 35.7C76.8 34 79.7 31.5 81 29.8C82.7 27.6 83.4 25.4 83.1 23.2C83.2 20.7 81.4 18.2 80.7 17.6C80.2 20.3 77.5 24.9 75.1 27.5C75.3 28.4 75.5 29.7 75.5 30.8Z" fill="#13377D"/>
<path d="M73.9 46.6C74.4 47.2 74.9 47.9 75.3 48.5C77.2 48.9 79.5 48.8 79.5 48.8C79.5 48.8 79.4 49.8 78.1 49.9C77.5 49.9 75.7 49.6 75 49.4C74.7 49.5 73.3 49.9 71.9 50.1C73.9 50.8 76.8 51.5 78.6 51.5C78.8 51.5 78.9 51.5 79.1 51.5C82 51.2 83.5 48.5 83.6 47C82.7 47.2 81.2 47.3 79.7 47.3C78.3 47.3 75.8 47.2 73.9 46.6Z" fill="#13377D"/>
<path d="M86 39C83.4 40.4 78.8 41.8 75.1 41.8C76 42.4 76.9 43 77.5 43.6C79 43.5 81.1 43 82.3 42.6C82.3 42.8 82.3 43.8 80.9 44.2C79.9 44.5 78.5 44.5 77.4 44.5C76.5 45.1 75.2 45.6 74.1 46C75.1 46.1 76.4 46.2 77.5 46.2C79.4 46.2 81.2 46 82.3 45.6C83.3 45.3 86.6 43.9 86 39Z" fill="#13377D"/>
<path d="M72 52.8C73.1 53.3 74.3 53.7 75.3 53.8C75.3 53.8 75.1 54.8 73.6 54.6C72.7 54.5 71.7 53.8 71.5 53.7C70.8 53.8 69.4 53.8 68.9 53.7C70.6 54.9 73.2 56.3 75.4 56.5C75.5 56.5 75.6 56.5 75.7 56.5C78 56.5 79.8 54.2 80.3 53.1C78 53.1 74 52.1 71.6 50.8C71.7 51.2 71.9 52 72 52.8Z" fill="#13377D"/>
<path d="M68 55.9C68.6 56.6 69.6 57 69.6 57C69.6 57 69.3 57.5 68.7 57.5C68.5 57.5 68.3 57.4 68.1 57.3C67.7 57.1 67.1 56.4 67.1 56.4C66.3 56.3 65.6 56.2 64.9 56C66.1 57.5 68.1 59.4 70.3 59.9C70.6 60 70.9 60 71.3 60C73.2 60 74.8 58.6 75.2 57.7C73 57.4 69.8 55.7 68.2 54.1C68.2 54.7 68.1 55.4 68 55.9Z" fill="#13377D"/>
<path d="M53.7 80.4C54.8 80.4 55.5 80 56 78.9C54.5 79.6 52.9 79.2 49.9 78.3C49.9 78.3 48.8 78.8 48.1 78.9C49.9 79.4 52.5 80.3 52.9 81.3C53.1 82.1 52.6 82.3 52.6 82.3C51.6 81.1 50.4 80.4 47.8 79.6C47.8 80.1 47.7 80.4 47.7 80.4C47.7 80.4 47.2 80.5 46 80.3C47 81.1 49.4 83.2 49.7 85.4C49.9 86.9 48.8 87 48.8 87C48.7 84.7 47.7 83.3 45.5 81C45.5 81 45.1 81.5 44.7 81.8C44.7 81.8 43.9 81.7 43.3 81.2C43.6 84.2 43.7 91.4 43.5 92.5C43.4 93.3 42.9 93.7 42.9 93.7C42.9 93.7 42.4 93.4 42.3 92.5C42.1 91.3 42.3 84.1 42.5 81.2C41.8 81.6 41.1 81.8 41.1 81.8C40.6 81.5 40.3 81 40.3 81C38.2 83.3 37.2 84.8 37 87C37 87 36 86.9 36.1 85.4C36.4 83.2 38.8 81.1 39.8 80.3C38.7 80.5 38.1 80.4 38.1 80.4C38.1 80.4 38 80.1 38 79.6C35.4 80.4 34.3 81.1 33.2 82.3C33.2 82.3 32.7 82.2 32.9 81.3C33.3 80.3 35.9 79.5 37.7 78.9C37.1 78.8 35.9 78.3 35.9 78.3C33 79.2 31.3 79.6 29.8 78.9C30.2 80 31 80.4 32.1 80.4C30.7 80.9 29.4 82.3 29 83.7C30 87.4 33.2 88.5 33.2 88.5C32.4 86.7 32.7 83.2 37.5 80.8C34.6 83.7 33.4 86.4 34.2 88.9C34.9 91.2 37.3 92.1 39 92.2C37.8 88.4 38.3 84.9 40.9 82.2C39.8 85.2 38.2 94.5 42.7 96C47.2 94.5 45.6 85.2 44.5 82.2C47.1 85 47.6 88.4 46.4 92.2C48.2 92.2 50.5 91.2 51.2 88.9C52 86.4 50.9 83.7 47.9 80.8C52.7 83.2 53 86.8 52.2 88.5C52.2 88.5 55.4 87.4 56.4 83.7C56.4 82.3 55 81 53.7 80.4Z" fill="#13377D"/>
<path d="M22.7 61.3C23.7 60.7 24.3 59.5 25 58.1C24.6 58.3 24 58.5 23.4 58.6C22.8 59.7 22 59.3 22 59.1C22.2 58.9 22.4 58.6 22.5 58.4C22.3 57.9 22 57.2 21.8 56.8C21 58.6 19.4 60.3 18.2 61C18.9 62 21.2 62.2 22.7 61.3Z" fill="#13377D"/>
<path d="M11.1 41.1C9.39998 40 8.29998 39 7.69998 38.1C6.29998 37.6 4.49998 36.7 3.69998 36C2.49998 35 2.89998 34.1 2.99998 33.9C3.99998 35 6.29998 36.5 7.99998 37.2C8.99998 36.8 10.4 36.5 11.8 36.3C7.69998 34.8 3.29998 31.7 0.999976 28.9C0.499976 29.8 -1.40002 34.1 2.19998 37.6C3.99998 39.3 7.89998 40.6 11.1 41.1Z" fill="#13377D"/>
<path d="M11.8 35.6C11.2 34.5 10.7 33.1 10.6 31.8C8.89997 30.5 6.99997 28.8 5.79997 26.8C5.19997 25.7 5.39997 24.7 5.89997 24.4C6.29997 25.6 8.49997 29 10.6 30.7C10.6 29.6 10.8 28.3 11.1 27.4C8.69997 24.8 5.89997 20.2 5.49997 17.5C4.79997 18.1 2.99997 20.6 3.09997 23.1C2.79997 25.3 3.49997 27.5 5.19997 29.7C6.39997 31.4 9.29997 34 11.8 35.6Z" fill="#13377D"/>
<path d="M10.8 48.5C11.1 47.9 11.7 47.2 12.2 46.6C10.3 47.1 7.79998 47.2 6.49998 47.2C4.89998 47.2 3.39998 47.1 2.59998 46.9C2.69998 48.5 4.19998 51.2 7.09998 51.4C7.29998 51.4 7.39998 51.4 7.59998 51.4C9.39998 51.4 12.3 50.7 14.3 50C12.9 49.8 11.5 49.5 11.2 49.3C10.4 49.7 8.59998 50 7.99998 49.9C6.69998 49.8 6.59998 48.8 6.59998 48.8C6.59998 48.8 8.89998 48.9 10.8 48.5Z" fill="#13377D"/>
<path d="M3.8 45.7C4.9 46.1 6.6 46.3 8.6 46.3C9.8 46.3 11 46.2 12 46.1C10.9 45.7 9.6 45.2 8.7 44.6C7.6 44.6 6.1 44.5 5.2 44.3C3.8 43.9 3.8 42.9 3.8 42.7C5 43.2 7.1 43.7 8.6 43.7C9.2 43.2 10 42.5 11 41.9C7.4 41.9 2.7 40.5 0.0999976 39.1C-0.500002 43.9 2.8 45.3 3.8 45.7Z" fill="#13377D"/>
<path d="M10.5 56.4C10.6 56.4 10.7 56.4 10.8 56.4C13 56.2 15.6 54.8 17.3 53.6C16.8 53.7 15.3 53.7 14.7 53.6C14.5 53.8 13.4 54.4 12.6 54.5C11 54.7 10.9 53.7 10.9 53.7C11.9 53.6 13.1 53.2 14.2 52.7C14.3 51.9 14.5 51.1 14.7 50.6C12.2 52 8.20002 53 5.90002 53C6.40002 54.1 8.20002 56.4 10.5 56.4Z" fill="#13377D"/>
<path d="M14.8 60C15.1 60 15.5 60 15.8 59.9C17.9 59.4 20 57.5 21.2 56C20.5 56.2 19.8 56.4 19 56.4C19 56.4 18.5 57 18 57.3C17.8 57.4 17.6 57.5 17.4 57.5C16.8 57.5 16.5 57 16.5 57C16.5 57 17.5 56.5 18.1 55.9C18 55.4 17.9 54.7 17.9 54.1C16.2 55.8 13.1 57.4 10.9 57.7C11.3 58.6 12.8 60 14.8 60Z" fill="#13377D"/>
<path d="M42.2 5.29998C42.2 5.79998 42.6 6.09998 43 6.09998C43.4 6.09998 43.8 5.69998 43.8 5.29998C43.8 4.79998 43.4 4.49998 43 4.49998C42.6 4.39998 42.2 4.79998 42.2 5.29998Z" fill="#13377D"/>
<path d="M42.5 3.5H43.6L43.5 2.1L44.7 2.3V1.2L43.5 1.3L43.6 0H42.5L42.6 1.3L41.4 1.2V2.3L42.6 2.1L42.5 3.5Z" fill="#13377D"/>
<path d="M38.6 16.7C38.7 16.7 38.9 16.8 39 16.8H47C47.2 16.8 47.3 16.8 47.4 16.7C47.7 16.6 47.8 16.4 47.9 16.1H38.1C38.2 16.5 38.4 16.6 38.6 16.7Z" fill="#13377D"/>
<path d="M47.4 15.5C47.5 15.5 47.5 15.4 47.5 15.4V14.8C47.5 14.7 47.4 14.7 47.4 14.7H38.7C38.6 14.7 38.6 14.8 38.6 14.8V15.4C38.6 15.5 38.7 15.5 38.7 15.5H47.4Z" fill="#13377D"/>
<path d="M48.3 14C48.5 13.7 49.6 11.6 49.6 9.39999C49.6 7.39999 47.1 6.29999 45.7 6.29999C45.5 9.09999 44.4 13.5 43 13.5C41.7 13.5 40.5 9.09999 40.3 6.29999C38.8 6.29999 36.4 7.39999 36.4 9.39999C36.4 11.6 37.5 13.8 37.7 14H48.3Z" fill="#13377D"/>
<path d="M43 12.1C43.7 12.1 44.5 9.99999 44.8 7.89999C44.8 7.49999 44.1 6.89999 43 6.79999C41.9 6.79999 41.2 7.39999 41.2 7.89999C41.5 9.79999 42.4 12.1 43 12.1Z" fill="#13377D"/>
<path d="M55.7 44.9C55.7 44.6 55.5 44.4 55.2 44.4H30.9C30.6 44.4 30.4 44.6 30.4 44.9V61.6V61.7V61.8C30.4 61.8 30.4 62.7 30.8 63.7C31.3 64.9 33.4 66.9 36 68.3C39.7 70.2 41.9 71.7 43 72.6C44.1 71.7 46.3 70.2 50 68.3C52.7 66.9 54.7 64.9 55.2 63.7C55.7 62.6 55.6 61.8 55.6 61.8L55.7 44.9ZM47.5 51V51.1C47.8 52.3 48.1 53.6 48.2 54.8C49.2 55.6 50.1 56.4 50.9 57.2C52.4 55.5 53.2 53.9 53.2 52.6C52.5 52.6 51.9 52 51.9 51.3C51.9 51 52 50.8 52.1 50.6C51.4 50.3 50.6 50.2 49.9 50.2C49.3 50.2 48.7 50.3 48 50.4H47.9L47.7 50.5L47.8 50.4C47.9 50.2 47.9 50.1 48 49.9C50 49.5 51.6 49.7 52.6 50.3C52.8 50.2 53 50.1 53.2 50.1C53.9 50.1 54.5 50.7 54.5 51.4C54.5 51.9 54.2 52.3 53.8 52.5C53.8 53.9 53 55.7 51.3 57.7C51.4 57.8 51.5 57.9 51.6 58C51.7 58.1 51.7 58.1 51.8 58.2V58.3C51.7 58.4 51.6 58.5 51.5 58.6H51.4C51.4 58.6 51.4 58.6 51.3 58.6C51.2 58.5 51.2 58.5 51.2 58.4C51.1 58.3 51.1 58.2 51 58.1C50.8 58.3 50.6 58.5 50.4 58.7L50.2 59C49.9 59.2 49.6 59.3 49.4 59.2H49.3L49.4 59.1C49.9 58.7 50.3 58.2 50.7 57.9C50.1 57.2 49.3 56.5 48.5 55.8C48.6 56.5 48.6 57.2 48.6 57.9C48.6 58.5 48.6 59.2 48.5 59.9C48.4 60 48.2 60.1 48.1 60.2L48 60.3V60.2C48.1 59.4 48.1 58.6 48.1 57.9C48.1 57.7 48.1 57.4 48.1 57.2V57C48.1 56.5 48 55.1 47.9 54.2C47.8 53.4 47.6 52.6 47.4 51.8V51.7C47.5 51.6 47.6 51.5 47.7 51.4L47.5 51ZM39.3 49.2C40.3 46.8 41.7 45.5 43.1 45.5C44.5 45.5 45.9 46.8 46.9 49.2V49.3H46.8C46.7 49.3 46.6 49.4 46.4 49.5H46.3V49.4C45.4 47.3 44.2 46.1 43 46.1C41.8 46.1 40.6 47.3 39.7 49.4V49.5H39.6C39.5 49.3 39.3 49.3 39.3 49.2ZM38.9 49.8C39.2 50 40.1 50.5 41.1 50.2C42 49.9 43 49.9 43 49.9C43 49.9 44.1 49.9 44.9 50.2C45.9 50.5 46.8 50 47.1 49.8C47.2 49.8 47.2 49.8 47.2 49.9C47.1 50.3 46.8 51.3 45.3 51.7C43.9 52 43.2 53.6 43 54.3C43 54.4 42.9 54.4 42.8 54.3C42.6 53.6 41.9 52 40.5 51.7C39 51.4 38.7 50.3 38.6 49.9C38.8 49.8 38.9 49.8 38.9 49.8ZM41.3 53.8C41.5 53.8 41.8 53.7 42 53.6C42.1 53.8 42.2 54.1 42.3 54.3C42 54.5 41.7 54.6 41.3 54.6C40.2 54.6 39.4 53.7 39.4 52.7C39.4 52.4 39.5 52.2 39.6 52C39.8 52.1 40 52.2 40.3 52.3C40.2 52.4 40.2 52.6 40.2 52.7C40.1 53.3 40.7 53.8 41.3 53.8ZM40.8 52.6C40.8 52.5 40.8 52.5 40.8 52.4C41.1 52.5 41.4 52.8 41.6 53C41.5 53.1 41.4 53.1 41.3 53.1C41 53.1 40.8 52.9 40.8 52.6ZM41.3 55.2C41.7 55.2 42.2 55.1 42.6 54.8C42.7 54.9 42.9 55.3 43 55.3C43.2 55.3 43.3 54.9 43.4 54.8C43.8 55 44.3 55.2 44.7 55.2C45.4 55.2 46 54.9 46.5 54.5C46.5 54.5 46.5 54.5 46.5 54.6C46.7 55.4 46.8 56.4 46.7 56.8C46.7 57.2 46.5 57.6 46.4 58C46.2 58.5 46.1 58.9 46.1 58.9C46.1 58.9 46.1 59 46 59.2C45.9 59.6 45.6 60.3 45.2 61C44.4 60.5 43.6 60.3 42.6 60.3C41.7 60.3 40.9 60.5 40.2 60.9C39.9 60.2 39.6 59.6 39.5 59.3C39.4 59.1 39.4 59 39.4 59C39.4 59 39.2 58.6 39 58C38.9 57.7 38.8 57.3 38.8 56.9C38.8 56.6 38.7 55.6 39 54.7C39 54.6 39.1 54.5 39.1 54.4C39.8 54.8 40.6 55.2 41.3 55.2ZM44.8 53.8C45.5 53.8 46 53.3 46 52.6C46 52.4 46 52.3 45.9 52.2C46.1 52.1 46.4 52 46.6 51.9C46.7 52.1 46.8 52.4 46.8 52.6C46.8 53.7 45.9 54.5 44.9 54.5C44.5 54.5 44.2 54.4 43.9 54.2C44 54 44.1 53.8 44.2 53.5C44.3 53.7 44.6 53.8 44.8 53.8ZM44.5 53C44.7 52.7 45 52.5 45.3 52.4C45.3 52.5 45.3 52.5 45.3 52.6C45.3 52.9 45.1 53.1 44.8 53.1C44.7 53.1 44.6 53.1 44.5 53ZM32.9 50.2C33.2 50.2 33.4 50.3 33.6 50.4C34.3 50 35.1 49.8 36.2 49.8C36.8 49.8 37.4 49.9 38.1 50H38.2C38.2 50.1 38.3 50.3 38.4 50.5L38.5 50.6L38.3 50.5C38.2 50.5 38.2 50.5 38.1 50.5C37.5 50.4 36.9 50.3 36.3 50.3C35.6 50.3 34.7 50.4 34.1 50.8C34.2 51 34.3 51.2 34.3 51.5C34.3 52.2 33.7 52.8 33 52.8C33 54 33.8 55.6 35.3 57.4C36.1 56.6 37 55.7 38 55C38.1 53.8 38.4 52.5 38.7 51.3V51.2L38.8 51.3C38.9 51.4 39 51.5 39.1 51.6C39.1 51.6 39.1 51.6 39.2 51.7V51.8C39 52.6 38.8 53.3 38.7 54.1V54.2C38.6 54.8 38.5 55.6 38.5 56.4C38.5 57 38.4 57.5 38.4 57.9C38.4 58.5 38.4 59.1 38.5 59.9V60H38.4C38.2 59.9 38.1 59.9 38 59.9H37.9V59.8C37.9 59.3 37.8 58.6 37.8 57.9C37.8 57.2 37.8 56.5 37.9 55.8C37.1 56.5 36.3 57.2 35.7 57.9C36.2 58.5 36.9 59.1 37.7 59.8L37.8 59.9H37.7C37.5 60 37.2 60 37 59.9C36.4 59.3 35.9 58.9 35.4 58.4C35.3 58.5 35.2 58.6 35.2 58.7L35.1 58.8C35 58.8 34.9 58.9 34.7 59L34.6 58.9C34.6 58.9 34.5 58.9 34.5 58.8H34.4V58.7C34.6 58.4 34.8 58.2 35 58C33.3 56.1 32.5 54.3 32.5 52.9C32.1 52.7 31.8 52.3 31.8 51.8C31.6 50.8 32.2 50.2 32.9 50.2ZM47.1 65.7C46.4 67.7 45.4 69.1 44.3 69.7C44.2 70.3 43.7 70.8 43.1 70.8C42.5 70.8 42 70.3 41.9 69.7C40.8 69.1 39.8 67.8 39.1 65.8V65.7L39.7 65.5V65.6C40.3 67.3 41.1 68.5 42 69.1C42.2 68.6 42.6 68.2 43.2 68.2C43.8 68.2 44.2 68.6 44.4 69C45.3 68.4 46.1 67.2 46.7 65.6V65.5H46.8C46.8 65.6 46.9 65.6 47.1 65.7ZM42 65.6C42 65.2 42.1 64.1 42.3 63.7C42.5 63.6 42.8 63.5 43.1 63.5C43.4 63.5 43.7 63.6 44 63.8C44.1 64.2 44.3 65.2 44.3 65.6C44.3 66 43.3 66.3 43.2 66.4C42.9 66.3 42 66.1 42 65.6ZM54.8 61.6C54.7 61.7 54.6 61.8 54.5 61.8C54.4 61.8 54.3 61.9 54.1 61.9H54C53.8 61.9 53.6 61.9 53.5 61.8C53.4 61.8 53.4 61.7 53.3 61.7C53 61.7 52.3 61.9 52.1 62C52.2 62 53.1 62.1 53.7 62.6C54 62.8 54.6 62.9 54.8 62.9C54.8 63 53.8 63.7 51.9 63.3L51.4 63.2C50.5 63 49.7 62.9 48.8 62.9C48.9 62.9 49 63 49 63C49.2 63.1 49.5 63.2 49.7 63.3C49.7 63.3 49.8 63.3 49.8 63.4H49.9C50 63.4 50.1 63.4 50.1 63.5C50.2 63.5 50.3 63.6 50.4 63.6C50.5 63.7 50.7 63.8 50.7 63.9C50.7 64 50.8 64 50.8 64.1C50.8 64.3 50.8 64.4 50.7 64.6C50.4 65 50 65 49.6 64.6L49.5 64.5C49.4 64.4 49.3 64.3 49.2 64.1V64C49.2 64 49.2 64 49.1 64C48.9 63.9 48.8 63.7 48.6 63.7C48.3 63.6 47.9 63.5 47.6 63.4C47.5 63.4 47.4 63.4 47.3 63.4C47.6 63.6 47.9 63.8 48 64C48 64 48 64 48 64.1C48.2 64.4 48.2 64.7 48.3 65C48.6 65.6 48.7 65.7 49 65.9C48.7 66 47.2 66 46.5 64.9C46.5 64.9 46.4 64.8 46.4 64.7C46.2 64.3 46.1 63.9 46 63.6C45.9 63.3 46.1 63 45.9 62.9C45.7 62.8 45.6 62.9 45.6 62.9C45.5 63 45.5 63 45.5 63V63.1C45.5 63.2 45.4 63.2 45.4 63.2V63.3C45.4 63.3 45.4 63.4 45.3 63.4C45.3 63.4 45.3 63.4 45.2 63.4C45.1 63.4 45.1 63.4 45 63.4C45 63.4 45 63.4 44.9 63.4C44.9 63.4 44.8 63.4 44.8 63.5C44.7 63.5 44.6 63.6 44.5 63.6C44.4 63.6 44.3 63.5 44.3 63.4C44.3 63.3 44.3 63.3 44.3 63.2C44.2 63.2 44.2 63.2 44.1 63.2C44 63.2 44 63.2 43.9 63.1C43.9 63 43.9 62.9 43.9 62.9C43.9 62.8 43.9 62.8 43.9 62.8C43.8 62.9 43.8 62.9 43.7 62.9C43.6 62.9 43.6 62.9 43.5 62.9C43.4 62.9 43.4 62.8 43.4 62.7V62.6C43.4 62.6 43.4 62.6 43.4 62.5C43.4 62.5 43.4 62.5 43.3 62.5H43.2C43.1 62.5 42.9 62.4 42.8 62.4C42.8 62.4 42.8 62.4 42.7 62.4C42.6 62.4 42.4 62.5 42.3 62.5H42.2H42.1C42.1 62.5 42.1 62.5 42.1 62.4C42.1 62.4 42.1 62.4 42.1 62.3L42.2 62.2C42.2 62.2 42.2 62.2 42.2 62.1C42.1 62.1 42.1 62.1 42 62.1V62.2C42 62.2 42 62.2 41.9 62.2V62.3V62.4C41.9 62.5 41.9 62.6 41.8 62.6C41.7 62.7 41.7 62.7 41.6 62.6C41.6 62.6 41.5 62.6 41.5 62.5C41.5 62.5 41.4 62.5 41.4 62.4C41.4 62.4 41.4 62.5 41.5 62.5C41.5 62.6 41.5 62.6 41.5 62.7C41.4 62.8 41.4 62.8 41.3 62.8H41.2H41.1C41.1 62.9 41.2 62.9 41.1 63C41.1 63.1 41 63.1 40.9 63.1C40.8 63.1 40.8 63.1 40.7 63.1C40.7 63.1 40.7 63.1 40.6 63.1H40.5L40.4 63C40.4 63 40.3 63 40.2 63C40.2 63 40.1 63 40.1 62.9L40 62.8V62.7C39.8 62.5 39.5 63.2 39.5 63.2C38.6 65.1 36.4 65.5 36.4 65.4C36.4 65.4 36.9 65.2 37.1 64.5C37.2 64.1 37.2 64 37.4 63.6C37.4 63.5 37.5 63.5 37.5 63.4C37.6 63.2 37.9 63.1 38.1 62.9C38 62.9 37.9 62.9 37.8 62.9C37.5 63 37.2 63 36.8 63.2C36.6 63.3 36.5 63.4 36.3 63.5C36.3 63.5 36.3 63.5 36.2 63.5V63.6C36.2 63.7 36.1 63.8 36 64L35.9 64.1C35.5 64.5 35.2 64.5 34.8 64.1L34.7 64C34.6 63.9 34.6 63.7 34.7 63.6C34.7 63.5 34.8 63.4 34.9 63.3C35 63.2 35.1 63.2 35.2 63.1C35.3 63 35.4 63 35.5 63C35.6 63 35.6 63 35.7 62.9C35.7 62.9 35.8 62.9 35.9 62.9C35.9 62.9 35.9 62.8 36 62.8C36.1 62.8 36.2 62.7 36.3 62.7C36.4 62.7 36.5 62.6 36.6 62.6C36.6 62.6 36.7 62.6 36.8 62.5C36 62.5 35.2 62.6 34.3 62.8C34.2 62.8 34 62.9 33.8 62.9C32.8 63.1 30.9 62.6 30.9 62.5C30.9 62.4 31.4 62.4 31.9 62.1C32.3 61.9 32.5 61.7 32.8 61.6C33.3 62 33.9 62 34 62C33.8 61.9 32.9 61.8 32.6 61.7C32.6 61.7 32.5 61.8 32.4 61.8C32.2 61.9 32 61.9 31.8 61.9C31.7 61.9 31.5 61.9 31.4 61.8C31.3 61.8 31.2 61.7 31.1 61.6C31 61.5 31 61.4 31 61.1C31.1 60.7 31.5 60.5 32 60.6C32.3 60.7 32.5 60.8 32.6 60.9L32.7 61C33 61 33.4 61.2 33.8 61.3C34.2 61.5 34.5 61.6 34.7 61.6C34.6 61.6 34.5 61.5 34.4 61.5C34.3 61.5 34.2 61.4 34.2 61.4C34.1 61.3 34 61.3 33.9 61.2C33.3 60.9 32.7 60.6 32.3 60.2C32 59.8 31.9 59.6 31.8 59.2C31.7 58.3 31.3 57.9 31.3 57.8C31.4 57.7 32.8 58.4 33.3 58.9C33.6 59.3 33.7 59.6 33.8 59.9V60C33.9 60.3 34.2 60.6 34.7 60.9C34.8 60.9 34.8 61 34.9 61C34.8 60.8 34.7 60.7 34.6 60.5V60.4L34.5 60.3C34.5 60.3 34.4 60.2 34.4 60.1C34.3 60 34.3 59.9 34.2 59.8C34.1 59.5 34.1 59.2 34.2 59.1C34.3 59 34.4 58.9 34.6 58.8C35 58.7 35.3 58.9 35.4 59.5C35.4 59.6 35.4 59.7 35.4 59.8C35.4 59.9 35.4 60 35.4 60.1V60.2C35.4 60.2 35.4 60.2 35.4 60.3C35.6 60.9 36.1 61.4 36.7 61.8C36 61.2 35.6 59.8 35.7 59.8C35.8 59.7 36.4 60.1 37 60.4C37.3 60.5 37.6 60.7 37.9 60.9C38.1 61 38.3 61.2 38.4 61.3C38.6 61.4 38.7 61.6 38.8 61.7C38.9 61.8 39 61.9 39.1 62C39.2 62.1 39.2 62.1 39.3 62.2C39.5 62.3 39.8 62.2 39.8 62.2C39.9 62.2 40 62.2 40.1 62.1C40.1 62.1 40.1 62.1 40.2 62C40.3 61.9 40.4 61.9 40.5 61.9V61.8C40.5 61.6 40.6 61.5 40.8 61.4C40.8 61.4 40.9 61.4 40.9 61.3H41H41.1H41.2C41.2 61.2 41.3 61.2 41.4 61.1C41.6 61 41.9 61 42.1 61.2C42.2 61.3 42.2 61.4 42.3 61.5V61.6C42.3 61.7 42.3 61.7 42.3 61.8C42.3 61.9 42.3 61.9 42.3 62C42.4 62 42.6 62 42.7 62C42.8 62 42.8 62 42.9 62C43 62 43.1 62 43.2 62.1C43.3 62.1 43.4 62 43.5 62C43.6 62 43.6 62 43.7 62H43.8C43.8 61.9 43.8 61.8 43.8 61.7C43.8 61.6 43.8 61.5 43.9 61.4C43.9 61.4 43.9 61.3 44 61.3L44.1 61.2C44.3 61.1 44.5 61.1 44.7 61.2C44.8 61.2 44.8 61.3 44.9 61.4C45 61.4 45 61.4 45.1 61.4H45.2H45.3C45.5 61.5 45.6 61.6 45.6 61.8C45.6 61.8 45.6 61.8 45.7 61.8H45.8C45.8 61.8 46.3 61.8 46.4 61.9H46.9C47 61.8 47 61.8 47.1 61.7C47.2 61.6 47.4 61.4 47.5 61.3C47.7 61.2 47.8 61 48 60.9C48.3 60.7 48.7 60.6 49 60.5C50 60.1 50.1 59.5 50.2 59.5C50.3 59.6 50 61.2 49.3 61.8C49.8 61.4 50.3 60.9 50.6 60.3C50.6 60.3 50.6 60.3 50.6 60.2V60.1C50.6 60 50.6 59.9 50.6 59.8C50.6 59.7 50.6 59.6 50.6 59.5C50.8 59 51 58.7 51.4 58.8C51.6 58.9 51.7 59 51.8 59.1C51.9 59.3 51.9 59.5 51.8 59.8C51.8 59.9 51.7 60 51.6 60.1C51.5 60.2 51.5 60.2 51.4 60.3L51.3 60.4V60.5C51.2 60.7 51.1 60.8 50.9 61C51 60.9 51 60.9 51.1 60.8C51.6 60.4 51.9 60.1 52 59.8C52.1 59.5 52.2 59.2 52.5 58.8C53 58.3 53.1 58.1 53.6 57.8C53.7 57.7 54.4 57.6 54.5 57.6C54.6 57.7 54 57.9 53.8 58.9C53.7 59.2 53.6 59.7 53.3 60.1C52.9 60.6 52.5 60.7 52 61L51.9 61.1C51.8 61.2 51.7 61.2 51.5 61.3C51.3 61.4 51.2 61.5 51.1 61.5C51.4 61.4 51.7 61.3 52.1 61.2C52.4 61 52.8 60.9 53.2 60.9C53.2 60.9 53.2 60.8 53.3 60.8C53.4 60.7 53.6 60.6 53.9 60.5C54.4 60.3 54.8 60.5 54.9 61C55 61.3 54.9 61.5 54.8 61.6Z" fill="#13377D"/>
<path d="M72.3 41.5C73.8 40.8 76.3 39.1 77.3 37.9C75.9 37.4 73.1 37.1 71.5 37.1C74.8 34.8 74.9 30 74 26.5C73.2 29.3 71.2 31.6 69.9 33C70 34.4 69.6 36.8 68.8 38.2C69.9 38.6 71.2 39.2 72.1 39.9C71.5 40.7 70.2 41.8 69.4 42.5C70.1 43.2 71.2 44.5 71.8 45.3C71 45.9 69.4 46.5 68.5 46.8C68.9 47.7 69.5 49.2 69.7 50.3C68.7 50.5 67.4 50.6 66 50.6C66.1 51.6 65.9 53.2 65.7 54.2C64.4 54.1 62.9 53.6 62.2 53.2C61.8 54.6 60.9 56 60.9 56.1C59.7 54.7 58.5 54.2 57.4 54.2V53.3C58.5 53.3 59.7 53.7 60.6 54.6C61 53.9 61.4 52.6 61.6 51.8C62.4 52.2 63.7 52.7 64.8 52.9C64.9 51.9 65 50.6 64.9 49.6C66 49.7 67.2 49.7 68.5 49.5C68.3 48.6 67.5 47.1 67 46.3C68.1 46 69.5 45.4 70.2 45C69.6 44.2 68.6 43.1 67.9 42.4C68.7 41.8 70 40.8 70.5 40.2C69.6 39.6 68.4 39 67.4 38.6C68.8 36.7 69.1 32.8 68.8 31C67.6 35.1 64 38.1 61.8 39.5C61.7 39.6 61.6 39.7 61.5 39.7C61.4 39.8 61 40.3 61.2 40.9C61.2 41.1 61.3 41.2 61.3 41.4C61.5 42.2 61.5 43.4 60.3 44.5C59.3 45.4 58.1 45.5 57.4 45.4V43.2C57.4 42.9 57.2 42.7 56.9 42.7H55.4L54.7 42C54.7 42 55.4 42 56.2 42C57 41.9 57.9 41.5 57.9 41.5C57.9 41.5 57 41.5 56.6 41.4C56.1 41.5 55 41 54.1 40C53.8 39.6 53.5 39.2 53.3 38.8C52.5 38.1 51.6 37.2 51 35.9C50.6 35 50.4 33.7 50.3 32.9C50 33.1 49.7 33.5 49.3 34C48.6 34.9 48.3 36.2 48.3 36.2L48 37.2L47.5 36.3C47.5 36.3 46.8 35.1 46.7 33.6C46.7 32.9 46.7 32.3 46.8 31.8C46.6 31.9 46.3 32.1 46 32.3C44.8 33.2 44.1 34.1 44.1 34.1C43.5 34.9 43.1 35.6 43 35.9C42.9 35.5 42.5 34.9 41.9 34.1C41.9 34.1 41.3 33.1 40 32.3C39.7 32.1 39.4 31.9 39.2 31.8C39.3 32.3 39.3 33 39.3 33.6C39.2 35.1 38.5 36.2 38.5 36.3L38 37.1L37.7 36.1C37.7 36.1 37.3 34.8 36.7 33.9C36.3 33.4 36 33 35.7 32.8C35.6 33.6 35.4 35 35 35.8C34.4 37.1 33.6 38.1 32.7 38.7C32.5 39.1 32.2 39.5 31.9 39.9C31 40.9 29.9 41.4 29.4 41.5C29 41.6 28.1 41.6 28.1 41.6C28.1 41.6 29 42 29.8 42.1C30.6 42.2 31.3 42.1 31.3 42.1L30.6 42.8H29.1C28.8 42.8 28.6 43 28.6 43.3V45.5C27.9 45.6 26.6 45.5 25.7 44.6C24.6 43.5 24.5 42.3 24.7 41.5C24.8 41.4 24.8 41.2 24.8 41C25 40.4 24.6 39.9 24.5 39.8C24.4 39.7 24.3 39.6 24.2 39.6C22 38.2 18.5 35.2 17.2 31.1C16.9 32.9 17.3 36.7 18.6 38.7C17.6 39.1 16.3 39.7 15.5 40.3C16 40.9 17.3 42 18.1 42.5C17.4 43.1 16.3 44.3 15.8 45.1C16.5 45.5 17.9 46.1 19 46.4C18.5 47.2 17.7 48.7 17.5 49.6C18.7 49.8 20 49.8 21.1 49.7C21 50.7 21.1 52.1 21.2 53C22.3 52.8 23.6 52.4 24.4 51.9C24.6 52.6 25 54 25.4 54.7C26.3 53.8 27.5 53.4 28.6 53.4V54.3C27.5 54.3 26.3 54.8 25.1 56.2C25.1 56.1 24.2 54.7 23.8 53.3C23.1 53.6 21.6 54.2 20.3 54.3C20.1 53.3 20 51.7 20 50.7C18.6 50.7 17.3 50.6 16.3 50.4C16.5 49.3 17.1 47.8 17.5 46.9C16.6 46.6 15 45.9 14.2 45.4C14.7 44.6 15.9 43.3 16.6 42.6C15.8 42 14.5 40.8 13.9 40C14.8 39.3 16.1 38.7 17.2 38.3C16.4 36.8 16 34.4 16.1 33.1C14.7 31.7 12.7 29.4 12 26.6C11 30.1 11.2 35 14.5 37.2C12.9 37.2 10.1 37.6 8.70001 38C9.70001 39.2 12.2 40.8 13.7 41.6C12.5 42 10.4 43.2 9.50001 44C10.6 44.7 13.1 45.5 14.3 45.8C13.6 46.4 12.2 48 11.7 48.8C12.7 49.1 14.7 49.4 16 49.4C15.6 50.3 15.1 51.8 15 52.7C15.6 52.8 17.7 52.7 18.8 52.4C18.7 53.3 18.7 54.8 18.9 55.5C19.9 55.4 21.4 54.9 22.1 54.7C22.3 55.5 23 57.1 23.3 57.5C23.8 57.4 24.3 57.3 24.8 57.1C26.2 56.6 27.7 57.2 28.3 58.5C29.3 60.8 28.9 63.5 27 63C24.8 63.4 26.3 66.2 25 67.1C26.7 68.3 27.2 65.5 29.4 66C29.2 67 29.2 68.9 29.4 69.7C30.1 69.2 31.1 68.8 31.7 68.7C31.5 69.3 31.4 70.7 31.6 71.6C32 71.3 34.9 70.5 34.9 70.5C34.9 70.5 33.8 72.7 34.5 74.9C34.9 75.2 37.5 73.9 37.5 73.2C37.6 74.1 36.5 76.1 34.8 76.5C36.6 78.3 38.2 78.2 38.4 78.2C38.7 78.2 38.9 78.2 39.1 78C39 78.5 38.9 79.2 39 79.6C39.1 79.6 39.2 79.6 39.3 79.6C39.8 79.6 40.2 79.5 40.5 79.4C40.6 79.9 40.8 80.4 41.1 80.8C41.2 80.9 41.2 80.9 41.3 81C41.7 81 42.7 80.5 42.9 80.2C43.1 80.5 44.1 81 44.5 81C44.6 80.9 44.7 80.9 44.7 80.8C45.1 80.4 45.3 79.8 45.3 79.4C45.7 79.6 46.1 79.6 46.5 79.6C46.6 79.6 46.7 79.6 46.8 79.6C46.9 79.2 46.9 78.5 46.7 78C46.9 78.1 47.2 78.2 47.4 78.2C47.6 78.2 49.2 78.3 51 76.5C49.3 76.1 48.2 74.1 48.3 73.2C48.3 74 50.9 75.2 51.3 74.9C52 72.7 50.9 70.5 50.9 70.5C50.9 70.5 53.7 71.2 54.2 71.6C54.4 70.7 54.3 69.3 54.1 68.7C54.7 68.7 55.7 69.2 56.4 69.7C56.6 68.9 56.6 67.1 56.4 66C58.5 65.5 59 68.3 60.8 67.1C59.6 66.2 61.1 63.4 58.8 63C56.9 63.6 56.5 60.8 57.5 58.5C58.1 57.2 59.7 56.6 61 57.1C61.5 57.3 62 57.4 62.5 57.5C62.7 57.1 63.5 55.5 63.7 54.7C64.4 55 65.9 55.4 66.9 55.5C67 54.8 67.1 53.3 67 52.4C68 52.6 70.2 52.7 70.8 52.7C70.7 51.7 70.2 50.2 69.8 49.4C71.1 49.3 73.1 49.1 74.1 48.8C73.6 47.9 72.2 46.3 71.5 45.8C72.7 45.5 75.2 44.7 76.3 44C75.6 43.1 73.5 41.9 72.3 41.5ZM56.1 64C56 64.2 55.9 64.3 55.8 64.5C55.8 64.6 55.7 64.6 55.7 64.7C55.6 64.8 55.5 64.9 55.4 65.1C55.3 65.2 55.3 65.2 55.2 65.3C55.1 65.5 54.9 65.6 54.8 65.8C54.7 65.9 54.6 66 54.5 66.1C54.4 66.2 54.3 66.3 54.2 66.4C54.1 66.5 54 66.6 53.8 66.8C53.7 66.9 53.7 66.9 53.6 67C53.3 67.3 52.9 67.6 52.5 67.8C52 68.2 51.5 68.5 50.9 68.8C50.7 68.9 50.5 69 50.3 69.1C45.8 71.4 43.6 73.2 42.9 73.7H42.8C42.1 73.1 39.9 71.4 35.4 69.1C35.2 69 35 68.9 34.8 68.8C34.2 68.5 33.7 68.2 33.2 67.8C32.8 67.5 32.5 67.2 32.1 67C32 66.9 31.9 66.9 31.9 66.8C31.8 66.7 31.6 66.6 31.5 66.4C31.4 66.3 31.3 66.2 31.2 66.1C31.1 66 31 65.9 30.9 65.8C30.7 65.6 30.6 65.5 30.5 65.3C30.4 65.2 30.4 65.2 30.3 65.1C30.2 65 30.1 64.9 30 64.7C30 64.6 29.9 64.6 29.9 64.5C29.8 64.3 29.7 64.2 29.6 64C29 62.7 29.1 61.6 29.1 61.6V44.1C29.1 43.8 29.3 43.6 29.6 43.6H31.1H43H54.5H56C56.3 43.6 56.5 43.8 56.5 44.1V61.6C56.6 61.6 56.7 62.7 56.1 64Z" fill="#13377D"/>
<path d="M55.5 16C55.9 16 56.1 15.7 56.1 15.3C56.1 14.9 55.8 14.6 55.5 14.6C55.1 14.6 54.9 14.9 54.9 15.3C54.9 15.7 55.2 16 55.5 16Z" fill="#13377D"/>
<path d="M55.5 19.7C55.9 19.7 56.3 18 56.3 17.2C56.3 16.7 55.9 16.4 55.5 16.4C55.1 16.4 54.7 16.7 54.7 17.2C54.7 18 55.1 19.7 55.5 19.7Z" fill="#13377D"/>
<path d="M55.1 13.6H56L55.8 12.5L56.9 12.6V11.7L55.8 11.9L56 10.8H55.1L55.2 11.9L54.1 11.7V12.6L55.2 12.5L55.1 13.6Z" fill="#13377D"/>
<path d="M51.6 21.7C51.9 21.8 52.2 21.8 52.5 21.9H52.6H52.7C52.8 21.9 52.8 21.9 52.8 21.9H53C53.1 21.9 53.2 21.9 53.3 21.9C53.4 21.9 53.4 21.9 53.5 21.9C53.6 21.9 53.7 21.9 53.8 21.9C54.6 21.9 55.4 21.7 56.2 21.5C57 21.3 57.8 21.1 58.7 21.1H58.8H58.9H59H59.1H59.2H59.3C59.5 20.2 59.8 19.2 59.8 18.6C59.8 17.4 59.1 16.1 56.8 15.7C56.8 17.2 56.1 20.7 55.3 20.7H55.2C54.4 20.7 53.7 17.2 53.7 15.7C51.4 16.1 50.7 17.4 50.7 18.6C50.7 19.3 51 20.6 51.3 21.5C51.6 21.6 51.6 21.6 51.6 21.7Z" fill="#13377D"/>
<path d="M63.6 15.4C63.6 15.4 63 13.8 64 13.3C65.1 12.9 63.6 13.1 64.4 10.9C65.3 8.30002 67.3 8.90002 67.3 8.90002C65.9 7.80002 64.8 7.90002 64 8.50002C63.5 8.90002 62.8 9.70002 62.3 11.3C61.9 13.3 62.6 15.2 63.6 15.4Z" fill="#13377D"/>
<path d="M68.8 11.5C68.9 14.8 74.4 16.2 74.4 16.2C74.4 16.2 71.2 13.9 71.8 12.2C71.8 12.2 73.9 13.1 76.3 12.7C71.2 11.6 72.9 9.99999 71.6 8.69999C70.3 7.29999 68.3 7.19999 67.8 7.09999C66.5 6.99999 66.4 6.99999 64.9 7.39999C68.4 7.49999 68.8 9.29999 68.8 11.5Z" fill="#13377D"/>
<path d="M68.1 17.7C68.8 15.1 67.5 13.9 67.5 13.9C67.1 13.4 65 13.5 64.2 14C64.2 14 66.2 14 65.9 16.9C65.6 19.8 61.6 20.4 60.5 20.5L60.4 20.9C62.3 20.9 67.3 20.3 68.1 17.7Z" fill="#13377D"/>
<path d="M47.2 17.6H45.2C46.2 20.4 49.1 21.3 51 21.6L50.9 21.3C48.9 20.5 47.9 19.7 47.2 17.6Z" fill="#13377D"/>
<path d="M30.6 16C31 16 31.2 15.7 31.2 15.3C31.2 14.9 30.9 14.6 30.6 14.6C30.2 14.6 30 14.9 30 15.3C29.9 15.7 30.2 16 30.6 16Z" fill="#13377D"/>
<path d="M30.6 19.7C31 19.7 31.4 18 31.4 17.2C31.4 16.7 31 16.4 30.6 16.4C30.2 16.4 29.8 16.7 29.8 17.2C29.8 18 30.1 19.7 30.6 19.7Z" fill="#13377D"/>
<path d="M30.1 13.6H31L30.9 12.5L32 12.6V11.7L30.9 11.9L31 10.8H30.1L30.3 11.9L29.2 11.7V12.6L30.3 12.5L30.1 13.6Z" fill="#13377D"/>
<path d="M26.6 21.1H26.7H26.8H27C27.1 21.1 27.1 21.1 27.1 21.1H27.2C28.1 21.2 29 21.3 29.7 21.5C30.4 21.7 31.3 21.9 32.1 21.9C32.2 21.9 32.3 21.9 32.4 21.9C32.5 21.9 32.5 21.9 32.6 21.9C32.7 21.9 32.8 21.9 32.9 21.9H33.1H33.2H33.3H33.4C33.7 21.9 34 21.8 34.3 21.7C34.3 21.6 34.3 21.6 34.4 21.6C34.7 20.7 35 19.4 35 18.7C35 17.5 34.4 16.2 32 15.8C32 17.2 31.3 20.8 30.5 20.8H30.4C29.6 20.8 28.9 17.3 28.9 15.8C26.6 16.2 25.9 17.5 25.9 18.7C25.9 19.3 26.1 20.3 26.4 21.2C26.5 21.1 26.5 21.1 26.6 21.1Z" fill="#13377D"/>
<path d="M18.7 8.89999C18.7 8.89999 20.7 8.29999 21.6 10.9C22.4 13.1 20.9 12.9 22 13.3C23.1 13.7 22.4 15.4 22.4 15.4C23.5 15.2 24.2 13.3 23.6 11.2C23.1 9.59999 22.4 8.79999 21.9 8.39999C21.1 7.89999 20.1 7.79999 18.7 8.89999Z" fill="#13377D"/>
<path d="M14.2 12.2C14.8 13.9 11.6 16.2 11.6 16.2C11.6 16.2 17.2 14.8 17.2 11.5C17.3 9.29998 17.6 7.49998 21 7.39998C19.5 7.09998 19.4 7.09998 18.1 7.09998C17.6 7.09998 15.6 7.29998 14.3 8.69998C13.1 9.99998 14.7 11.6 9.59998 12.7C12.1 13.1 14.2 12.2 14.2 12.2Z" fill="#13377D"/>
<path d="M20.2 16.9C19.9 14 21.9 14 21.9 14C21.2 13.5 19.1 13.5 18.6 13.9C18.6 13.9 17.3 15 18 17.7C18.7 20.3 23.8 20.9 25.7 20.9L25.6 20.5C24.5 20.4 20.5 19.8 20.2 16.9Z" fill="#13377D"/>
<path d="M40.9 17.6H38.9C38.2 19.7 37.2 20.5 35.2 21.3L35.1 21.6C37.1 21.3 39.9 20.4 40.9 17.6Z" fill="#13377D"/>
<path d="M45.6 29.9C45 30.8 44.5 31.8 44.1 32.8C44.4 32.4 44.9 32 45.4 31.6C46.3 31 47.1 30.6 47.1 30.6L47.9 30.3L47.7 31.1C47.7 31.1 47.4 32.4 47.5 33.5C47.5 34 47.7 34.5 47.8 34.8C48 34.3 48.3 33.8 48.6 33.3C49.6 32 50.4 31.5 50.4 31.5L51 31.2V31.9C51 31.9 51.2 34.2 51.7 35.4C52.6 37.4 54.3 38.5 55.3 39C55.2 38.9 55 38.7 54.8 38.5C54.3 38 53.8 37.1 53.5 35.2C53.3 33.6 53.9 32 54.1 31.5C54.2 31.9 54.4 32.3 54.6 32.4C54.6 32.4 54.6 32 54.7 31.6C54.9 30.5 56.1 28.8 57.7 27.8C58 27.6 58.3 27.4 58.5 27.3C58.8 27.2 59 27 59.2 26.8C58.9 26.8 58.5 26.9 58.2 26.9H58.1C57.9 26.9 57.6 26.9 57.2 26.9C56.4 26.9 55.5 26.8 54.8 26.2C54.1 25.6 53.8 25 53.7 24.6C53.4 24.6 53 24.6 52.5 24.6C51.9 24.6 51.4 24.4 51.1 24.4C50.3 24.9 49.5 25.1 48.5 25.2C48.4 25.2 48.2 25.2 48.1 25.2C48.4 25.5 48.8 25.7 49.1 25.9C49.1 25.9 49.1 25.9 49.2 25.9L49 26C49.1 25.9 47.7 26.7 45.6 29.9Z" fill="#13377D"/>
<path d="M58.7 24.3C58.3 24.3 58 24.3 57.6 24.3C57.6 24.5 57.6 24.7 57.6 24.9C57.7 25.2 57.8 25.4 58 25.6C58.3 25.4 58.6 24.9 58.7 24.3Z" fill="#13377D"/>
<path d="M59.5 22C59.4 22 59.4 22 59.5 22H59.4C59.4 22 59.4 22 59.3 22C59.2 22 59.2 22 59.1 22C58.3 22 57.5 22.2 56.7 22.4C55.9 22.6 55 22.8 54.2 22.8C54 22.8 53.9 22.8 53.7 22.8C53.6 22.8 53.5 22.8 53.4 22.8C53.3 22.8 53.3 22.8 53.2 22.8C53.1 22.8 53.1 22.8 53 22.8C53 22.8 53 22.8 52.9 22.8C52.9 22.8 52.9 22.8 52.8 22.8C51 22.6 49.8 22 49.2 21.7C49.3 21.9 49.5 22.1 49.8 22.4C49.9 22.5 50 22.6 50.1 22.7C50.3 22.9 50.6 23.1 50.9 23.3C51.3 23.5 53 24.2 55.2 23.9C57.7 23.5 58.2 23.6 58.8 23.6H59C59.9 23.7 61.2 24.2 61.7 24.5C61.9 24 62.2 23.5 62.3 23C62.2 22.9 62 22.7 61.6 22.5C61.5 22.4 61.4 22.4 61.2 22.3C61 22.2 60.7 22.1 60.3 22.1C59.9 22 59.7 22 59.5 22Z" fill="#13377D"/>
<path d="M66.5 30.2C66.4 30.2 65.5 30.7 63.6 29.5C61.7 28.3 60.3 27.8 59.5 27.6C59.3 27.7 59.2 27.8 59 27.9C58.8 28 58.5 28.2 58.2 28.4C58.1 28.5 58 28.5 57.9 28.6C57.9 28.6 58 28.6 58.1 28.6C59.9 28.8 61.3 29.8 61.4 30.2H61.5C61.7 29.6 61.4 29.1 61.4 29.1C61.4 29.1 62.2 29.6 63.8 30.5C65.5 31.6 66.2 30.6 66.5 30.2Z" fill="#13377D"/>
<path d="M57 25.3C56.9 25.2 56.8 25 56.7 24.9C56.6 24.7 56.6 24.6 56.6 24.5C56.2 24.5 55.7 24.6 55.1 24.7C55 24.7 54.8 24.7 54.7 24.7C55 25.3 55.5 25.9 56.5 26.1C56.6 26.1 56.6 26.1 56.7 26.1C56.8 26.1 56.8 26.1 56.9 26.1C57.3 26.2 57.8 26.2 58.1 26.2C58.8 26.2 59.6 26.1 60.4 25.9C60.6 25.7 60.7 25.4 60.9 25.2C60.9 25.2 60.8 25.1 60.7 25.1C60.5 25 60 24.7 59.7 24.6C59.6 24.9 59.4 25.2 59.2 25.4C58.9 25.6 58.5 25.7 58.1 25.7C57.7 25.7 57.3 25.6 57.1 25.4C57 25.4 57 25.3 57 25.3Z" fill="#13377D"/>
<path d="M62.3 23.8C61.7 25.4 60.7 26.6 60 27.2C64.5 26 65.3 28.3 65.3 28.4C65.3 28.5 65.3 28.5 65.4 28.4C65.5 28.3 67 26.7 65.9 25.2C65 24 63 23.8 62.3 23.8ZM62.3 25C62.5 24.8 62.6 24.4 62.6 24.4C62.9 24.4 63.5 24.5 63.5 24.9C63.1 24.8 62.6 24.8 62.3 25Z" fill="#13377D"/>
<path d="M28.5 24.9C28.5 24.7 28.5 24.5 28.5 24.3C28.1 24.3 27.7 24.3 27.4 24.3C27.5 24.9 27.8 25.4 28.1 25.6C28.3 25.4 28.4 25.2 28.5 24.9Z" fill="#13377D"/>
<path d="M33.6 22.7C33.5 22.7 33.5 22.7 33.6 22.7C33.5 22.7 33.5 22.7 33.5 22.7C33.5 22.7 33.5 22.7 33.4 22.7C33.3 22.7 33.3 22.7 33.2 22.7C33.1 22.7 33.1 22.7 33 22.7C32.9 22.7 32.8 22.7 32.7 22.7C32.5 22.7 32.4 22.7 32.2 22.7C31.3 22.7 30.5 22.5 29.7 22.3C28.8 22.2 28 22 27.2 22C27.1 22 27.1 22 27 22C27 22 27 22 26.9 22C26.7 22 26.5 22 26.4 22C26 22 25.7 22.1 25.5 22.2C25.4 22.3 25.2 22.3 25.1 22.4C24.8 22.6 24.6 22.7 24.4 22.9C24.5 23.4 24.8 24 25 24.4C25.5 24.1 26.8 23.5 27.7 23.5H27.9C28.5 23.5 29 23.4 31.5 23.8C33.7 24.1 35.3 23.4 35.8 23.2C36.1 23 36.4 22.8 36.6 22.6C36.7 22.5 36.8 22.4 36.9 22.3C37.1 22 37.3 21.8 37.5 21.6C36.6 21.9 35.4 22.5 33.6 22.7Z" fill="#13377D"/>
<path d="M19.6 30.2C19.9 30.5 20.6 31.6 22.2 30.7C23.8 29.8 24.6 29.3 24.6 29.3C24.6 29.3 24.3 29.8 24.5 30.4C24.5 30.4 24.5 30.4 24.6 30.4C24.8 30 26.2 28.9 27.9 28.8C28 28.8 28 28.8 28.1 28.8C28 28.7 27.9 28.7 27.8 28.6C27.5 28.4 27.2 28.2 27 28.1C26.8 28 26.7 27.9 26.5 27.8C25.7 27.9 24.3 28.5 22.4 29.7C20.6 30.7 19.7 30.2 19.6 30.2Z" fill="#13377D"/>
<path d="M26.4 24.6C26.2 24.7 25.6 25 25.4 25.1C25.3 25.1 25.3 25.2 25.2 25.2C25.4 25.5 25.5 25.7 25.7 25.9C26.5 26.1 27.3 26.2 28 26.2C28.4 26.2 28.8 26.2 29.2 26.1C29.3 26.1 29.3 26.1 29.4 26.1C29.5 26.1 29.5 26.1 29.6 26.1C30.6 25.9 31.2 25.2 31.4 24.7C31.3 24.7 31.1 24.7 31 24.7C30.4 24.6 29.9 24.5 29.5 24.5C29.5 24.6 29.4 24.8 29.4 24.9C29.3 25.1 29.2 25.2 29.1 25.3L29 25.4C28.7 25.6 28.4 25.7 28 25.7C27.6 25.7 27.2 25.6 26.9 25.4C26.6 25.2 26.5 24.9 26.4 24.6Z" fill="#13377D"/>
<path d="M20.1 25.2C19 26.7 20.5 28.3 20.6 28.4C20.7 28.5 20.7 28.4 20.7 28.4C20.7 28.3 21.5 26 26 27.2C25.3 26.6 24.3 25.4 23.7 23.8C23.1 23.8 21 24 20.1 25.2ZM23.8 25C23.5 24.8 23 24.8 22.6 24.9C22.6 24.5 23.2 24.4 23.5 24.4C23.5 24.4 23.6 24.8 23.8 25Z" fill="#13377D"/>
<path d="M37.9 25.2C37.8 25.2 37.6 25.2 37.5 25.2C36.5 25.2 35.7 24.9 34.9 24.4C34.6 24.5 34 24.6 33.5 24.6C33 24.6 32.5 24.6 32.3 24.6C32.2 25 31.9 25.7 31.2 26.2C30.5 26.8 29.6 26.9 28.8 26.9C28.4 26.9 28.1 26.9 27.9 26.9H27.8C27.6 26.9 27.2 26.8 26.8 26.8C27.1 27 27.3 27.1 27.5 27.3C27.7 27.4 28 27.6 28.3 27.8C29.9 28.9 31.1 30.5 31.3 31.6C31.4 32 31.4 32.4 31.4 32.4C31.6 32.3 31.8 31.9 31.9 31.5C32.1 32 32.8 33.6 32.5 35.2C32.2 37.1 31.7 38 31.2 38.5C31 38.7 30.8 38.9 30.7 39C31.7 38.5 33.4 37.4 34.3 35.4C34.8 34.3 35 32 35 32V31.3L35.6 31.6C35.6 31.6 36.5 32.1 37.4 33.4C37.7 33.9 38 34.4 38.2 34.9C38.3 34.5 38.4 34.1 38.5 33.6C38.6 32.4 38.3 31.2 38.3 31.2L38.1 30.4L38.9 30.7C38.9 30.7 39.7 31 40.6 31.7C41.2 32.1 41.6 32.5 41.9 32.9C41.5 31.9 41.1 30.9 40.4 30C38.3 26.8 37 26.1 37 26.1L36.8 26C36.8 26 36.8 26 36.9 26C37.2 25.7 37.6 25.4 37.9 25.2Z" fill="#13377D"/>
</svg>
