<svg width="492" height="56" viewBox="0 0 492 56" fill="none" xmlns="http://www.w3.org/2000/svg">
<g clip-path="url(#clip0_487_3441)">
<path d="M214.791 41.5215C214.007 46.1294 208.615 48.3453 207.653 48.6978C208.615 49.0503 214.007 51.2158 214.791 55.8489C215.601 51.2661 221.043 49.0503 222.005 48.6978C221.043 48.3453 215.601 46.1798 214.791 41.5215C214.892 41.4712 214.817 41.4712 214.791 41.5215Z" fill="#13377D"/>
<path d="M235.546 41.5216C234.762 46.1295 229.371 48.3453 228.409 48.6979C229.371 49.0504 234.762 51.2158 235.546 55.8489C236.331 51.2662 241.773 49.0504 242.735 48.6979C241.773 48.3453 236.331 46.1798 235.546 41.5216Z" fill="#13377D"/>
<path d="M256.302 41.5216C255.517 46.1295 250.126 48.3453 249.164 48.6979C250.126 49.0504 255.517 51.2158 256.302 55.8489C256.302 55.8489 256.302 55.8489 256.428 55.8489C257.213 51.2662 262.655 49.0504 263.617 48.6979C262.655 48.3453 257.213 46.1798 256.428 41.5216H256.302Z" fill="#13377D"/>
<path d="M277.183 41.5215C276.399 46.1294 270.982 48.3453 270.02 48.6978C270.982 49.0503 276.399 51.2158 277.183 55.8489C277.968 51.2661 283.41 49.0503 284.397 48.6978C283.41 48.3453 277.968 46.1798 277.183 41.5215C277.183 41.4712 277.183 41.4712 277.183 41.5215Z" fill="#13377D"/>
<path d="M297.837 41.5215C297.053 46.1294 291.636 48.3453 290.7 48.6978C291.661 49.0503 297.053 51.2158 297.837 55.8489C298.622 51.2661 304.064 49.0503 305.051 48.6978C304.064 48.3453 298.622 46.1798 297.837 41.5215C297.939 41.4712 297.837 41.4712 297.837 41.5215Z" fill="#13377D"/>
<path d="M318.593 41.5215C317.808 46.1294 312.417 48.3453 311.455 48.6978C312.417 49.0503 317.808 51.2158 318.593 55.8489C319.377 51.2661 324.845 49.0503 325.806 48.6978C324.845 48.3453 319.377 46.1798 318.593 41.5215C318.694 41.4712 318.593 41.4712 318.593 41.5215Z" fill="#13377D"/>
<path d="M339.348 41.5215C338.563 46.1294 333.172 48.3453 332.21 48.6978C333.172 49.0503 338.563 51.2158 339.348 55.8489C340.158 51.2661 345.6 49.0503 346.562 48.6978C345.6 48.3453 340.158 46.1798 339.348 41.5215C339.449 41.4712 339.373 41.4712 339.348 41.5215Z" fill="#13377D"/>
<path d="M360.103 41.5216C359.318 46.1295 353.927 48.3453 352.965 48.6979C353.927 49.0504 359.318 51.2158 360.103 55.8489C360.103 55.8489 360.103 55.8489 360.23 55.8489C361.014 51.2662 366.456 49.0504 367.418 48.6979C366.456 48.3453 361.014 46.1798 360.23 41.5216H360.103Z" fill="#13377D"/>
<path d="M380.96 41.5215C380.175 46.1294 374.758 48.3453 373.796 48.6978C374.758 49.0503 380.175 51.2158 380.96 55.8489C381.744 51.2661 387.186 49.0503 388.148 48.6978C387.186 48.3453 381.744 46.1798 380.96 41.5215C380.96 41.4712 380.96 41.4712 380.96 41.5215Z" fill="#13377D"/>
<path d="M401.639 41.5215C400.854 46.1294 395.438 48.3453 394.476 48.6978C395.438 49.0503 400.854 51.2158 401.639 55.8489C402.423 51.2661 407.865 49.0503 408.853 48.6978C407.865 48.3453 402.423 46.1798 401.639 41.5215C401.74 41.4712 401.639 41.4712 401.639 41.5215Z" fill="#13377D"/>
<path d="M7.18838 41.5216C6.35311 46.2554 1.01243 48.3453 0.0505981 48.7734C1.01243 49.1259 6.40373 51.2914 7.18838 55.9245C7.18838 55.9245 7.18838 55.9245 7.31493 55.9245C8.09958 51.3417 13.5415 49.1259 14.5033 48.7734C13.5415 48.4209 8.09958 46.2554 7.31493 41.5971L7.18838 41.5216Z" fill="#13377D"/>
<path d="M27.9436 41.5216C27.159 46.1295 21.7677 48.3453 20.8058 48.6979C21.7677 49.0504 27.159 51.2158 27.9436 55.8489C28.7283 51.2662 34.1702 49.0504 35.132 48.6979C34.1702 48.3453 28.7283 46.1798 27.9436 41.5216Z" fill="#13377D"/>
<path d="M48.7241 41.5215C47.9395 46.1294 42.5229 48.3453 41.561 48.6978C42.5229 49.0503 47.9395 51.2158 48.7241 55.8489C49.5088 51.2661 54.9507 49.0503 55.9125 48.6978C54.9507 48.3453 49.5088 46.1798 48.7241 41.5215C48.7241 41.4712 48.8001 41.4712 48.7241 41.5215Z" fill="#13377D"/>
<path d="M69.4794 41.5215C68.6947 46.1294 63.2781 48.3453 62.3163 48.6978C63.2781 49.0503 68.6947 51.2158 69.4794 55.8489C70.264 51.2661 75.7059 49.0503 76.6931 48.6978C75.7059 48.3453 70.264 46.1798 69.4794 41.5215C69.6312 41.4712 69.4794 41.4712 69.4794 41.5215Z" fill="#13377D"/>
<path d="M90.2346 41.5215C89.4499 46.1294 84.0586 48.3453 83.0968 48.6978C84.0586 49.0503 89.4499 51.2158 90.2346 55.8489C91.0192 51.2661 96.4864 49.0503 97.4483 48.6978C96.4864 48.3453 91.0192 46.1798 90.2346 41.5215C90.3358 41.4712 90.2346 41.4712 90.2346 41.5215Z" fill="#13377D"/>
<path d="M110.99 41.5216C110.129 46.2554 104.814 48.3454 103.852 48.7734C104.814 49.1259 110.205 51.2914 110.99 55.9245C111.8 51.3418 117.242 49.1259 118.204 48.7734C117.242 48.4209 111.8 46.2554 110.99 41.5971C111.091 41.4712 111.015 41.4712 110.99 41.5216Z" fill="#13377D"/>
<path d="M131.745 41.5216C130.96 46.1295 125.569 48.3453 124.607 48.6979C125.569 49.0504 130.96 51.2158 131.745 55.8489C132.53 51.2662 137.972 49.0504 138.933 48.6979C137.972 48.3453 132.53 46.1798 131.745 41.5216Z" fill="#13377D"/>
<path d="M152.526 41.5215C151.716 46.1294 146.324 48.3453 145.362 48.6978C146.324 49.0503 151.716 51.2158 152.526 55.8489C153.31 51.2661 158.752 49.0503 159.714 48.6978C158.752 48.3453 153.31 46.1798 152.526 41.5215C152.602 41.4712 152.526 41.4712 152.526 41.5215Z" fill="#13377D"/>
<path d="M173.407 41.5215C172.623 46.1294 167.206 48.3453 166.244 48.6978C167.206 49.0503 172.623 51.2158 173.407 55.8489C174.192 51.2661 179.634 49.0503 180.621 48.6978C179.634 48.3453 174.192 46.1798 173.407 41.5215C173.407 41.4712 173.407 41.4712 173.407 41.5215Z" fill="#13377D"/>
<path d="M194.036 41.5215C193.251 46.1294 187.86 48.3453 186.898 48.6978C187.86 49.0503 193.251 51.2158 194.036 55.8489C194.821 51.2661 200.263 49.0503 201.25 48.6978C200.263 48.3453 194.821 46.1798 194.036 41.5215C194.137 41.4712 194.036 41.4712 194.036 41.5215Z" fill="#13377D"/>
<path d="M214.791 20.7986C214.007 25.3814 208.615 27.5972 207.653 27.9497C208.615 28.3022 214.007 30.4677 214.791 35.1008C215.601 30.4929 221.043 28.3022 222.005 27.9497C221.043 27.5972 215.601 25.4317 214.791 20.7986C214.892 20.7231 214.817 20.7231 214.791 20.7986Z" fill="#13377D"/>
<path d="M235.546 20.7986C234.762 25.3814 229.371 27.5972 228.409 27.9497C229.371 28.3022 234.762 30.4677 235.546 35.1008C236.331 30.4929 241.773 28.3022 242.735 27.9497C241.773 27.5972 236.331 25.4317 235.546 20.7986C235.648 20.7231 235.572 20.7231 235.546 20.7986Z" fill="#13377D"/>
<path d="M256.302 20.7986C255.517 25.3814 250.126 27.5972 249.164 27.9497C250.126 28.3022 255.517 30.4677 256.302 35.1008H256.428C257.213 30.4929 262.655 28.3022 263.617 27.9497C262.655 27.5972 257.213 25.4317 256.428 20.7986C256.403 20.7231 256.327 20.7231 256.302 20.7986Z" fill="#13377D"/>
<path d="M277.183 20.7986C276.399 25.3814 270.982 27.5972 270.02 27.9497C270.982 28.3022 276.399 30.4677 277.183 35.1008C277.968 30.4929 283.41 28.3022 284.397 27.9497C283.41 27.5972 277.968 25.4317 277.183 20.7986C277.183 20.7231 277.183 20.7231 277.183 20.7986Z" fill="#13377D"/>
<path d="M297.837 20.7986C297.053 25.3813 291.636 27.5971 290.7 27.9497C291.661 28.3022 297.053 30.4676 297.837 35.1007C298.622 30.4928 304.064 28.3022 305.051 27.9497C304.064 27.5971 298.622 25.4317 297.837 20.7986Z" fill="#13377D"/>
<path d="M318.593 20.7986C317.808 25.3813 312.417 27.5971 311.455 27.9497C312.417 28.3022 317.808 30.4676 318.593 35.1007C319.377 30.4928 324.845 28.3022 325.806 27.9497C324.845 27.5971 319.377 25.4317 318.593 20.7986Z" fill="#13377D"/>
<path d="M339.348 20.7986C338.563 25.3814 333.172 27.5972 332.21 27.9497C333.172 28.3022 338.563 30.4677 339.348 35.1008C340.158 30.4929 345.6 28.3022 346.562 27.9497C345.6 27.5972 340.158 25.4317 339.348 20.7986C339.449 20.7231 339.373 20.7231 339.348 20.7986Z" fill="#13377D"/>
<path d="M360.103 20.7986C359.318 25.3814 353.927 27.5972 352.965 27.9497C353.927 28.3022 359.318 30.4677 360.103 35.1008H360.23C361.014 30.4929 366.456 28.3022 367.418 27.9497C366.456 27.5972 361.014 25.4317 360.23 20.7986C360.204 20.7231 360.128 20.7231 360.103 20.7986Z" fill="#13377D"/>
<path d="M380.96 20.7986C380.175 25.3814 374.758 27.5972 373.796 27.9497C374.758 28.3022 380.175 30.4677 380.96 35.1008C381.744 30.4929 387.186 28.3022 388.148 27.9497C387.186 27.5972 381.744 25.4317 380.96 20.7986C380.96 20.7231 380.96 20.7231 380.96 20.7986Z" fill="#13377D"/>
<path d="M401.639 20.7986C400.854 25.3813 395.438 27.5971 394.476 27.9497C395.438 28.3022 400.854 30.4676 401.639 35.1007C402.423 30.4928 407.865 28.3022 408.853 27.9497C407.865 27.5971 402.423 25.4317 401.639 20.7986Z" fill="#13377D"/>
<path d="M7.18838 20.7986C6.40373 25.3814 1.01243 27.5972 0.0505981 27.9497C1.01243 28.3022 6.40373 30.4677 7.18838 35.1008H7.31493C8.09958 30.4929 13.5415 28.3022 14.5033 27.9497C13.5415 27.5972 8.09958 25.4317 7.31493 20.7986C7.28962 20.7231 7.21369 20.7231 7.18838 20.7986Z" fill="#13377D"/>
<path d="M27.9436 20.7986C27.159 25.3814 21.7677 27.5972 20.8058 27.9497C21.7677 28.3022 27.159 30.4677 27.9436 35.1008C28.7283 30.4929 34.1702 28.3022 35.132 27.9497C34.1702 27.5972 28.7283 25.4317 27.9436 20.7986C28.0449 20.7231 27.9689 20.7231 27.9436 20.7986Z" fill="#13377D"/>
<path d="M48.7241 20.7986C47.9395 25.3814 42.5229 27.5972 41.561 27.9497C42.5229 28.3022 47.9395 30.4677 48.7241 35.1008C49.5088 30.4929 54.9507 28.3022 55.9125 27.9497C54.9507 27.5972 49.5088 25.4317 48.7241 20.7986C48.7241 20.7231 48.8001 20.7231 48.7241 20.7986Z" fill="#13377D"/>
<path d="M69.4794 20.7986C68.6947 25.3813 63.2781 27.5971 62.3163 27.9497C63.2781 28.3022 68.6947 30.4676 69.4794 35.1007C70.264 30.4928 75.7059 28.3022 76.6931 27.9497C75.7059 27.5971 70.264 25.4317 69.4794 20.7986Z" fill="#13377D"/>
<path d="M90.2346 20.7986C89.4499 25.3813 84.0586 27.5971 83.0968 27.9497C84.0586 28.3022 89.4499 30.4676 90.2346 35.1007C91.0192 30.4928 96.4864 28.3022 97.4483 27.9497C96.4864 27.5971 91.0192 25.4317 90.2346 20.7986Z" fill="#13377D"/>
<path d="M110.99 20.7986C110.205 25.3814 104.814 27.5972 103.852 27.9497C104.814 28.3022 110.205 30.4677 110.99 35.1008C111.8 30.4929 117.242 28.3022 118.204 27.9497C117.242 27.5972 111.8 25.4317 110.99 20.7986C111.091 20.7231 111.015 20.7231 110.99 20.7986Z" fill="#13377D"/>
<path d="M131.745 20.7986C130.96 25.3814 125.569 27.5972 124.607 27.9497C125.569 28.3022 130.96 30.4677 131.745 35.1008C132.53 30.4929 137.972 28.3022 138.933 27.9497C137.972 27.5972 132.53 25.4317 131.745 20.7986C131.846 20.7231 131.77 20.7231 131.745 20.7986Z" fill="#13377D"/>
<path d="M152.526 20.7986C151.716 25.3814 146.324 27.5972 145.362 27.9497C146.324 28.3022 151.716 30.4677 152.526 35.1008C153.31 30.4929 158.752 28.3022 159.714 27.9497C158.752 27.5972 153.31 25.4317 152.526 20.7986C152.602 20.7231 152.526 20.7231 152.526 20.7986Z" fill="#13377D"/>
<path d="M173.407 20.7986C172.623 25.3813 167.206 27.5971 166.244 27.9497C167.206 28.3022 172.623 30.4676 173.407 35.1007C174.192 30.4928 179.634 28.3022 180.621 27.9497C179.634 27.5971 174.192 25.4317 173.407 20.7986Z" fill="#13377D"/>
<path d="M194.036 20.7986C193.251 25.3813 187.86 27.5971 186.898 27.9497C187.86 28.3022 193.251 30.4676 194.036 35.1007C194.821 30.4928 200.263 28.3022 201.25 27.9497C200.263 27.5971 194.821 25.4317 194.036 20.7986Z" fill="#13377D"/>
<path d="M214.791 0.0503125C214.007 4.65823 208.615 6.87407 207.653 7.22659C208.615 7.5791 214.007 9.74456 214.791 14.3777C215.601 9.79492 221.043 7.5791 222.005 7.22659C221.043 6.87407 215.601 4.70859 214.791 0.0503125C214.892 -4.72032e-05 214.817 -4.72032e-05 214.791 0.0503125Z" fill="#13377D"/>
<path d="M235.546 0.050354C234.762 4.65827 229.371 6.87411 228.409 7.22663C229.371 7.57915 234.762 9.74461 235.546 14.3777C236.331 9.79496 241.773 7.57915 242.735 7.22663C241.773 6.87411 236.331 4.70863 235.546 0.050354Z" fill="#13377D"/>
<path d="M256.302 0.050354C255.517 4.65827 250.126 6.87411 249.164 7.22663C250.126 7.57915 255.517 9.74461 256.302 14.3777C256.302 14.3777 256.302 14.3777 256.428 14.3777C257.213 9.79496 262.655 7.57915 263.617 7.22663C262.655 6.87411 257.213 4.70863 256.428 0.050354H256.302Z" fill="#13377D"/>
<path d="M277.183 0.0503125C276.399 4.65823 270.982 6.87407 270.02 7.22659C270.982 7.5791 276.399 9.74456 277.183 14.3777C277.968 9.79492 283.41 7.5791 284.397 7.22659C283.41 6.87407 277.968 4.70859 277.183 0.0503125C277.183 -4.72032e-05 277.183 -4.72032e-05 277.183 0.0503125Z" fill="#13377D"/>
<path d="M297.837 0.0503125C297.053 4.65823 291.636 6.87407 290.7 7.22659C291.661 7.5791 297.053 9.74456 297.837 14.3777C298.622 9.79492 304.064 7.5791 305.051 7.22659C304.064 6.87407 298.622 4.70859 297.837 0.0503125C297.939 -4.72032e-05 297.837 -4.72032e-05 297.837 0.0503125Z" fill="#13377D"/>
<path d="M318.593 0.0503125C317.808 4.65823 312.417 6.87407 311.455 7.22659C312.417 7.5791 317.808 9.74456 318.593 14.3777C319.377 9.79492 324.845 7.5791 325.806 7.22659C324.845 6.87407 319.377 4.70859 318.593 0.0503125C318.694 -4.72032e-05 318.593 -4.72032e-05 318.593 0.0503125Z" fill="#13377D"/>
<path d="M339.348 0.0503125C338.563 4.65823 333.172 6.87407 332.21 7.22659C333.172 7.5791 338.563 9.74456 339.348 14.3777C340.158 9.79492 345.6 7.5791 346.562 7.22659C345.6 6.87407 340.158 4.70859 339.348 0.0503125C339.449 -4.72032e-05 339.373 -4.72032e-05 339.348 0.0503125Z" fill="#13377D"/>
<path d="M360.103 0.050354C359.318 4.65827 353.927 6.87411 352.965 7.22663C353.927 7.57915 359.318 9.74461 360.103 14.3777C360.103 14.3777 360.103 14.3777 360.23 14.3777C361.014 9.79496 366.456 7.57915 367.418 7.22663C366.456 6.87411 361.014 4.70863 360.23 0.050354H360.103Z" fill="#13377D"/>
<path d="M380.96 0.0503125C380.175 4.65823 374.758 6.87407 373.796 7.22659C374.758 7.5791 380.175 9.74456 380.96 14.3777C381.744 9.79492 387.186 7.5791 388.148 7.22659C387.186 6.87407 381.744 4.70859 380.96 0.0503125C380.96 -4.72032e-05 380.96 -4.72032e-05 380.96 0.0503125Z" fill="#13377D"/>
<path d="M401.639 0.0503125C400.854 4.65823 395.438 6.87407 394.476 7.22659C395.438 7.5791 400.854 9.74456 401.639 14.3777C402.423 9.79492 407.865 7.5791 408.853 7.22659C407.865 6.87407 402.423 4.70859 401.639 0.0503125C401.74 -4.72032e-05 401.639 -4.72032e-05 401.639 0.0503125Z" fill="#13377D"/>
<path d="M422.394 41.5215C421.609 46.1294 416.218 48.3453 415.256 48.6978C416.218 49.0503 421.609 51.2158 422.394 55.8489C423.179 51.2661 428.621 49.0503 429.608 48.6978C428.621 48.3453 423.179 46.1798 422.394 41.5215C422.495 41.4712 422.394 41.4712 422.394 41.5215Z" fill="#13377D"/>
<path d="M443.149 41.5215C442.365 46.1294 436.973 48.3453 436.012 48.6978C436.973 49.0503 442.365 51.2158 443.149 55.8489C443.959 51.2661 449.401 49.0503 450.363 48.6978C449.401 48.3453 443.959 46.1798 443.149 41.5215C443.251 41.4712 443.175 41.4712 443.149 41.5215Z" fill="#13377D"/>
<path d="M463.905 41.5216C463.12 46.1295 457.729 48.3453 456.767 48.6979C457.729 49.0504 463.12 51.2158 463.905 55.8489C464.689 51.2662 470.131 49.0504 471.093 48.6979C470.131 48.3453 464.689 46.1798 463.905 41.5216Z" fill="#13377D"/>
<path d="M484.736 41.5215C483.926 46.1294 478.534 48.3453 477.573 48.6978C478.534 49.0503 483.926 51.2158 484.736 55.8489C485.52 51.2661 490.962 49.0503 491.924 48.6978C490.962 48.3453 485.52 46.1798 484.736 41.5215C484.736 41.4712 484.736 41.4712 484.736 41.5215Z" fill="#13377D"/>
<path d="M422.394 20.7986C421.609 25.3813 416.218 27.5971 415.256 27.9497C416.218 28.3022 421.609 30.4676 422.394 35.1007C423.179 30.4928 428.621 28.3022 429.608 27.9497C428.621 27.5971 423.179 25.4317 422.394 20.7986Z" fill="#13377D"/>
<path d="M443.149 20.7986C442.365 25.3814 436.973 27.5972 436.012 27.9497C436.973 28.3022 442.365 30.4677 443.149 35.1008C443.959 30.4929 449.401 28.3022 450.363 27.9497C449.401 27.5972 443.959 25.4317 443.149 20.7986C443.251 20.7231 443.175 20.7231 443.149 20.7986Z" fill="#13377D"/>
<path d="M463.905 20.7986C463.12 25.3814 457.729 27.5972 456.767 27.9497C457.729 28.3022 463.12 30.4677 463.905 35.1008C464.689 30.4929 470.131 28.3022 471.093 27.9497C470.131 27.5972 464.689 25.4317 463.905 20.7986C464.006 20.7231 463.93 20.7231 463.905 20.7986Z" fill="#13377D"/>
<path d="M484.736 20.7986C483.926 25.3814 478.534 27.5972 477.573 27.9497C478.534 28.3022 483.926 30.4677 484.736 35.1008C485.52 30.4929 490.962 28.3022 491.924 27.9497C490.962 27.5972 485.52 25.4317 484.736 20.7986C484.736 20.7231 484.736 20.7231 484.736 20.7986Z" fill="#13377D"/>
<path d="M422.394 0.0503125C421.609 4.65823 416.218 6.87407 415.256 7.22659C416.218 7.5791 421.609 9.74456 422.394 14.3777C423.179 9.79492 428.621 7.5791 429.608 7.22659C428.621 6.87407 423.179 4.70859 422.394 0.0503125C422.495 -4.72032e-05 422.394 -4.72032e-05 422.394 0.0503125Z" fill="#13377D"/>
<path d="M443.149 0.0503125C442.365 4.65823 436.973 6.87407 436.012 7.22659C436.973 7.5791 442.365 9.74456 443.149 14.3777C443.959 9.79492 449.401 7.5791 450.363 7.22659C449.401 6.87407 443.959 4.70859 443.149 0.0503125C443.251 -4.72032e-05 443.175 -4.72032e-05 443.149 0.0503125Z" fill="#13377D"/>
<path d="M7.18838 0.050354C6.40373 4.65827 1.01243 6.87411 0.0505981 7.22663C1.01243 7.57915 6.40373 9.74461 7.18838 14.3777C7.18838 14.3777 7.18838 14.3777 7.31493 14.3777C8.09958 9.79496 13.5415 7.57915 14.5033 7.22663C13.5415 6.87411 8.09958 4.70863 7.31493 0.050354H7.18838Z" fill="#13377D"/>
<path d="M27.9436 0.050354C27.159 4.65827 21.7677 6.87411 20.8058 7.22663C21.7677 7.57915 27.159 9.74461 27.9436 14.3777C28.7283 9.79496 34.1702 7.57915 35.132 7.22663C34.1702 6.87411 28.7283 4.70863 27.9436 0.050354Z" fill="#13377D"/>
<path d="M48.7241 0.0503125C47.9395 4.65823 42.5229 6.87407 41.561 7.22659C42.5229 7.5791 47.9395 9.74456 48.7241 14.3777C49.5088 9.79492 54.9507 7.5791 55.9125 7.22659C54.9507 6.87407 49.5088 4.70859 48.7241 0.0503125C48.7241 -4.72032e-05 48.8001 -4.72032e-05 48.7241 0.0503125Z" fill="#13377D"/>
<path d="M69.4794 0.0503125C68.6947 4.65823 63.2781 6.87407 62.3163 7.22659C63.2781 7.5791 68.6947 9.74456 69.4794 14.3777C70.264 9.79492 75.7059 7.5791 76.6931 7.22659C75.7059 6.87407 70.264 4.70859 69.4794 0.0503125C69.6312 -4.72032e-05 69.4794 -4.72032e-05 69.4794 0.0503125Z" fill="#13377D"/>
<path d="M90.2346 0.0503125C89.4499 4.65823 84.0586 6.87407 83.0968 7.22659C84.0586 7.5791 89.4499 9.74456 90.2346 14.3777C91.0192 9.79492 96.4864 7.5791 97.4483 7.22659C96.4864 6.87407 91.0192 4.70859 90.2346 0.0503125C90.3358 -4.72032e-05 90.2346 -4.72032e-05 90.2346 0.0503125Z" fill="#13377D"/>
<path d="M110.99 0.0503125C110.205 4.65823 104.814 6.87407 103.852 7.22659C104.814 7.5791 110.205 9.74456 110.99 14.3777C111.8 9.79492 117.242 7.5791 118.204 7.22659C117.242 6.87407 111.8 4.70859 110.99 0.0503125C111.091 -4.72032e-05 111.015 -4.72032e-05 110.99 0.0503125Z" fill="#13377D"/>
<path d="M131.745 0.050354C130.96 4.65827 125.569 6.87411 124.607 7.22663C125.569 7.57915 130.96 9.74461 131.745 14.3777C132.53 9.79496 137.972 7.57915 138.933 7.22663C137.972 6.87411 132.53 4.70863 131.745 0.050354Z" fill="#13377D"/>
<path d="M152.526 0.0503125C151.716 4.65823 146.324 6.87407 145.362 7.22659C146.324 7.5791 151.716 9.74456 152.526 14.3777C153.31 9.79492 158.752 7.5791 159.714 7.22659C158.752 6.87407 153.31 4.70859 152.526 0.0503125C152.602 -4.72032e-05 152.526 -4.72032e-05 152.526 0.0503125Z" fill="#13377D"/>
<path d="M173.407 0.0503125C172.623 4.65823 167.206 6.87407 166.244 7.22659C167.206 7.5791 172.623 9.74456 173.407 14.3777C174.192 9.79492 179.634 7.5791 180.621 7.22659C179.634 6.87407 174.192 4.70859 173.407 0.0503125C173.407 -4.72032e-05 173.407 -4.72032e-05 173.407 0.0503125Z" fill="#13377D"/>
<path d="M194.036 0.0503125C193.251 4.65823 187.86 6.87407 186.898 7.22659C187.86 7.5791 193.251 9.74456 194.036 14.3777C194.821 9.79492 200.263 7.5791 201.25 7.22659C200.263 6.87407 194.821 4.70859 194.036 0.0503125C194.137 -4.72032e-05 194.036 -4.72032e-05 194.036 0.0503125Z" fill="#13377D"/>
</g>
<defs>
<clipPath id="clip0_487_3441">
<rect width="492" height="56" fill="white"/>
</clipPath>
</defs>
</svg>
